<svg width="17" height="17" viewBox="0 0 17 17" fill="none" xmlns="http://www.w3.org/2000/svg">
<path d="M12.8508 3.94219H11.6508V2.74219H10.4508V3.94219H5.65078V2.74219H4.45078V3.94219H3.25078C2.58808 3.94219 2.05078 4.47949 2.05078 5.14219V13.5422C2.05078 14.2049 2.58808 14.7422 3.25078 14.7422H12.8508C13.5135 14.7422 14.0508 14.2049 14.0508 13.5422V5.14219C14.0508 4.47949 13.5135 3.94219 12.8508 3.94219ZM12.8508 13.5422H3.25078V7.54219H12.8508V13.5422ZM12.8508 6.34219H3.25078V5.14219H12.8508V6.34219Z" fill="black"/>
<path d="M9.25078 8.74219H8.05078V9.94219H9.25078V8.74219Z" fill="black"/>
<path d="M11.6531 8.74219H10.4531V9.94219H11.6531V8.74219Z" fill="black"/>
<path d="M9.25078 11.1406H8.05078V12.3406H9.25078V11.1406Z" fill="black"/>
<path d="M6.84844 11.1406H5.64844V12.3406H6.84844V11.1406Z" fill="black"/>
</svg>
