<svg width="16" height="16" viewBox="0 0 16 16" fill="none" xmlns="http://www.w3.org/2000/svg">
<path d="M12.8039 3.2H11.6039V2H10.4039V3.2H5.60391V2H4.40391V3.2H3.20391C2.54121 3.2 2.00391 3.7373 2.00391 4.4V12.8C2.00391 13.4627 2.54121 14 3.20391 14H12.8039C13.4666 14 14.0039 13.4627 14.0039 12.8V4.4C14.0039 3.7373 13.4666 3.2 12.8039 3.2ZM12.8039 12.8H3.20391V6.8H12.8039V12.8ZM12.8039 5.6H3.20391V4.4H12.8039V5.6Z" fill="black"/>
<path d="M9.20391 8H8.00391V9.2H9.20391V8Z" fill="black"/>
<path d="M11.6063 8H10.4062V9.2H11.6063V8Z" fill="black"/>
<path d="M9.20391 10.4004H8.00391V11.6004H9.20391V10.4004Z" fill="black"/>
<path d="M6.80156 10.4004H5.60156V11.6004H6.80156V10.4004Z" fill="black"/>
</svg>
