<svg width="55" height="54" viewBox="0 0 55 54" fill="none" xmlns="http://www.w3.org/2000/svg">
<circle cx="27.5898" cy="27" r="27" fill="#F7F7F7"/>
<path d="M27.5919 17.9329H38.2586C38.4 17.9329 38.5357 17.8767 38.6357 17.7767C38.7357 17.6766 38.7919 17.541 38.7919 17.3995C38.7919 17.2581 38.7357 17.1224 38.6357 17.0224C38.5357 16.9224 38.4 16.8662 38.2586 16.8662H27.5919C27.4505 16.8662 27.3148 16.9224 27.2148 17.0224C27.1148 17.1224 27.0586 17.2581 27.0586 17.3995C27.0586 17.541 27.1148 17.6766 27.2148 17.7767C27.3148 17.8767 27.4505 17.9329 27.5919 17.9329Z" fill="#828282"/>
<path d="M38.2599 19H30.2599C30.1184 19 29.9828 19.0562 29.8828 19.1562C29.7828 19.2562 29.7266 19.3919 29.7266 19.5333C29.7266 19.6748 29.7828 19.8104 29.8828 19.9105C29.9828 20.0105 30.1184 20.0667 30.2599 20.0667H38.2599C38.4013 20.0667 38.537 20.0105 38.637 19.9105C38.737 19.8104 38.7932 19.6748 38.7932 19.5333C38.7932 19.3919 38.737 19.2562 38.637 19.1562C38.537 19.0562 38.4013 19 38.2599 19Z" fill="#828282"/>
<path d="M41.9915 17.4H40.9248V14.7333C40.9248 14.5919 40.8686 14.4562 40.7686 14.3562C40.6686 14.2562 40.5329 14.2 40.3915 14.2H37.1915V11.5333C37.1915 11.3919 37.1353 11.2562 37.0353 11.1562C36.9353 11.0562 36.7996 11 36.6581 11H14.2581C14.1167 11 13.981 11.0562 13.881 11.1562C13.781 11.2562 13.7248 11.3919 13.7248 11.5333V17.4H13.5541C13.0113 17.4236 12.4999 17.6613 12.1321 18.0612C11.7642 18.461 11.5698 18.9904 11.5915 19.5333V40.824C11.5698 41.3765 11.7672 41.9151 12.1408 42.3227C12.5144 42.7303 13.0339 42.9737 13.5861 43H41.6768C42.2184 42.963 42.7234 42.7136 43.082 42.3061C43.4406 41.8985 43.6237 41.3659 43.5915 40.824V19C43.5915 18.5757 43.4229 18.1687 43.1229 17.8686C42.8228 17.5686 42.4158 17.4 41.9915 17.4ZM17.4581 14.7333V17.432C16.9879 17.54 16.5703 17.8094 16.278 18.1932C15.9857 18.5771 15.8372 19.0513 15.8581 19.5333V39.8H14.7915V12.0667H36.1248V14.2H17.9915C17.85 14.2 17.7144 14.2562 17.6144 14.3562C17.5143 14.4562 17.4581 14.5919 17.4581 14.7333ZM29.7248 39.8C28.248 39.8 26.8044 39.3621 25.5766 38.5416C24.3487 37.7212 23.3916 36.5551 22.8265 35.1907C22.2614 33.8263 22.1135 32.3251 22.4016 30.8767C22.6897 29.4283 23.4009 28.0978 24.4451 27.0536C25.4893 26.0094 26.8197 25.2982 28.2681 25.0101C29.7165 24.722 31.2178 24.8699 32.5822 25.435C33.9465 26.0002 35.1127 26.9572 35.9331 28.1851C36.7536 29.413 37.1915 30.8566 37.1915 32.3333C37.1915 34.3136 36.4048 36.2128 35.0045 37.6131C33.6043 39.0133 31.7051 39.8 29.7248 39.8ZM39.8581 21.6667H28.8501C28.7369 21.6662 28.628 21.6223 28.5461 21.544L24.5888 17.8107C24.3088 17.5469 23.9388 17.4001 23.5541 17.4H18.5248V15.2667H39.8581V21.6667Z" fill="#828282"/>
<path d="M29.7242 25.9336C28.4584 25.9336 27.221 26.3089 26.1686 27.0122C25.1161 27.7154 24.2958 28.715 23.8114 29.8844C23.327 31.0539 23.2003 32.3407 23.4472 33.5822C23.6941 34.8237 24.3037 35.964 25.1987 36.8591C26.0938 37.7541 27.2342 38.3637 28.4756 38.6106C29.7171 38.8576 31.0039 38.7308 32.1734 38.2464C33.3428 37.762 34.3424 36.9417 35.0456 35.8892C35.7489 34.8368 36.1242 33.5994 36.1242 32.3336C36.1242 30.6362 35.4499 29.0083 34.2497 27.8081C33.0495 26.6079 31.4216 25.9336 29.7242 25.9336ZM32.3909 33.1336H27.0576C26.8454 33.1336 26.6419 33.0493 26.4919 32.8993C26.3418 32.7493 26.2576 32.5458 26.2576 32.3336C26.2576 32.1214 26.3418 31.9179 26.4919 31.7679C26.6419 31.6179 26.8454 31.5336 27.0576 31.5336H32.3909C32.6031 31.5336 32.8065 31.6179 32.9566 31.7679C33.1066 31.9179 33.1909 32.1214 33.1909 32.3336C33.1909 32.5458 33.1066 32.7493 32.9566 32.8993C32.8065 33.0493 32.6031 33.1336 32.3909 33.1336Z" fill="#828282"/>
</svg>
