<svg width="32" height="32" viewBox="0 0 32 32" fill="none" xmlns="http://www.w3.org/2000/svg">
<circle cx="16" cy="16" r="16" fill="#9F0F0F"/>
<path d="M17.6127 16.0017L22.5213 11.0956C22.7357 10.8813 22.8562 10.5906 22.8562 10.2874C22.8562 9.98432 22.7357 9.69362 22.5213 9.47928C22.3068 9.26494 22.016 9.14453 21.7127 9.14453C21.4094 9.14453 21.1186 9.26494 20.9041 9.47928L15.9955 14.3854L11.087 9.48499C10.8683 9.29786 10.5871 9.20007 10.2995 9.21118C10.0119 9.22228 9.73901 9.34146 9.53547 9.54489C9.33194 9.74832 9.2127 10.021 9.20159 10.3085C9.19048 10.596 9.28832 10.8771 9.47555 11.0956L14.3784 16.0017L9.47555 20.9077C9.2611 21.1221 9.14063 21.4128 9.14062 21.7159C9.14062 22.019 9.2611 22.3097 9.47555 22.5241C9.68999 22.7384 9.98084 22.8588 10.2841 22.8588C10.5874 22.8588 10.8782 22.7384 11.0927 22.5241L15.9955 17.618L20.9041 22.5241C21.1186 22.7384 21.4094 22.8588 21.7127 22.8588C22.016 22.8588 22.3068 22.7384 22.5213 22.5241C22.7357 22.3097 22.8562 22.019 22.8562 21.7159C22.8562 21.4128 22.7357 21.1221 22.5213 20.9077L17.6127 16.0017Z" fill="white"/>
</svg>
