<svg width="16" height="16" viewBox="0 0 16 16" fill="none" xmlns="http://www.w3.org/2000/svg">
<path fill-rule="evenodd" clip-rule="evenodd" d="M8.00391 2.27273C4.84082 2.27273 2.27663 4.83691 2.27663 8C2.27663 11.1631 4.84082 13.7273 8.00391 13.7273C11.167 13.7273 13.7312 11.1631 13.7312 8C13.7312 4.83691 11.167 2.27273 8.00391 2.27273ZM1.00391 8C1.00391 4.13401 4.13791 1 8.00391 1C11.8699 1 15.0039 4.13401 15.0039 8C15.0039 11.866 11.8699 15 8.00391 15C4.13791 15 1.00391 11.866 1.00391 8Z" fill="black"/>
<path fill-rule="evenodd" clip-rule="evenodd" d="M8.00355 3.54492C8.35501 3.54492 8.63991 3.82983 8.63991 4.18129V7.60617L10.8336 8.70301C11.1479 8.86019 11.2754 9.24244 11.1182 9.55679C10.961 9.87114 10.5788 9.99855 10.2644 9.84138L7.71896 8.56865C7.50337 8.46085 7.36719 8.2405 7.36719 7.99947V4.18129C7.36719 3.82983 7.6521 3.54492 8.00355 3.54492Z" fill="black"/>
</svg>
