<svg width="16" height="17" viewBox="0 0 16 17" fill="none" xmlns="http://www.w3.org/2000/svg">
<path fill-rule="evenodd" clip-rule="evenodd" d="M3.9062 4.13855C3.63813 3.87048 3.2035 3.87048 2.93543 4.13855C2.66736 4.40663 2.66736 4.84126 2.93543 5.10933L6.2636 8.4375L2.93543 11.7657C2.66736 12.0337 2.66736 12.4684 2.93543 12.7364C3.2035 13.0045 3.63813 13.0045 3.9062 12.7364L7.71976 8.92289C7.98783 8.65481 7.98783 8.22018 7.71976 7.95211L3.9062 4.13855ZM9.24444 4.13855C8.97637 3.87048 8.54174 3.87048 8.27367 4.13855C8.0056 4.40663 8.0056 4.84126 8.27367 5.10933L11.6018 8.4375L8.27367 11.7657C8.0056 12.0337 8.0056 12.4684 8.27367 12.7364C8.54174 13.0045 8.97637 13.0045 9.24444 12.7364L13.058 8.92289C13.3261 8.65482 13.3261 8.22018 13.058 7.95211L9.24444 4.13855Z" fill="white"/>
</svg>
