<svg width="42" height="48" viewBox="0 0 42 48" fill="none" xmlns="http://www.w3.org/2000/svg">
<g clip-path="url(#clip0_8641_119027)">
<path d="M2.12389 9.76953H0.849558C0.38036 9.76953 0 10.1499 0 10.6191V16.566C0 17.0352 0.38036 17.4155 0.849558 17.4155H2.12389C2.59309 17.4155 2.97345 17.0352 2.97345 16.566V10.6191C2.97345 10.1499 2.59309 9.76953 2.12389 9.76953Z" fill="url(#paint0_linear_8641_119027)"/>
<path d="M40.7801 9.76953H39.5058C39.0366 9.76953 38.6562 10.1499 38.6562 10.6191V16.566C38.6562 17.0352 39.0366 17.4155 39.5058 17.4155H40.7801C41.2493 17.4155 41.6297 17.0352 41.6297 16.566V10.6191C41.6297 10.1499 41.2493 9.76953 40.7801 9.76953Z" fill="url(#paint1_linear_8641_119027)"/>
<path d="M30.5867 2.54867H11.0469L11.8964 0H29.7371L30.5867 2.54867Z" fill="#67BE2E"/>
<path d="M28.8916 0.425781H12.75V0.85056H28.8916V0.425781Z" fill="#479704"/>
<path d="M28.8916 1.27344H12.75V1.69822H28.8916V1.27344Z" fill="#479704"/>
<path d="M28.8916 2.125H12.75V2.54978H28.8916V2.125Z" fill="#479704"/>
<path d="M6.37569 33.1328H2.55268C2.08348 33.1328 1.70312 33.5132 1.70312 33.9824V47.1505C1.70312 47.6197 2.08348 48.0001 2.55268 48.0001H6.37569C6.84489 48.0001 7.22525 47.6197 7.22525 47.1505V33.9824C7.22525 33.5132 6.84489 33.1328 6.37569 33.1328Z" fill="url(#paint2_linear_8641_119027)"/>
<path d="M2.97947 33.1328H2.55469V48.0001H2.97947V33.1328Z" fill="#363636"/>
<path d="M3.82322 33.1328H3.39844V48.0001H3.82322V33.1328Z" fill="#363636"/>
<path d="M4.67478 33.1328H4.25V48.0001H4.67478V33.1328Z" fill="#363636"/>
<path d="M5.52634 33.1328H5.10156V48.0001H5.52634V33.1328Z" fill="#363636"/>
<path d="M6.3779 33.1328H5.95312V48.0001H6.3779V33.1328Z" fill="#363636"/>
<path d="M39.0866 33.1328H35.2636C34.7944 33.1328 34.4141 33.5132 34.4141 33.9824V47.1505C34.4141 47.6197 34.7944 48.0001 35.2636 48.0001H39.0866C39.5558 48.0001 39.9362 47.6197 39.9362 47.1505V33.9824C39.9362 33.5132 39.5558 33.1328 39.0866 33.1328Z" fill="url(#paint3_linear_8641_119027)"/>
<path d="M35.6904 33.1328H35.2656V48.0001H35.6904V33.1328Z" fill="#363636"/>
<path d="M36.5342 33.1328H36.1094V48.0001H36.5342V33.1328Z" fill="#363636"/>
<path d="M37.3857 33.1328H36.9609V48.0001H37.3857V33.1328Z" fill="#363636"/>
<path d="M38.2373 33.1328H37.8125V48.0001H38.2373V33.1328Z" fill="#363636"/>
<path d="M39.0888 33.1328H38.6641V48.0001H39.0888V33.1328Z" fill="#363636"/>
<path d="M25.9134 2.12109H15.7188V2.97065H25.9134V2.12109Z" fill="#3B7A00"/>
<path d="M25.9134 2.54688H15.7188V2.97165H25.9134V2.54688Z" fill="#3B7A00"/>
<path d="M25.0659 1.27344H16.5703V2.123H25.0659V1.27344Z" fill="#73D657"/>
<path d="M1.69531 21.2371L2.54487 7.64422C2.54487 7.17696 3.39443 2.54688 5.09354 2.54688H36.5272C38.2263 2.54688 39.0758 7.17696 39.0758 7.64422L39.9254 21.2371V42.0513C39.9254 42.5186 39.5431 42.9009 39.0758 42.9009H2.54487C2.07761 42.9009 1.69531 42.5186 1.69531 42.0513V21.2371Z" fill="url(#paint4_linear_8641_119027)"/>
<path d="M36.5283 31.4336H4.66987C4.20067 31.4336 3.82031 31.814 3.82031 32.2832V39.0796C3.82031 39.5488 4.20067 39.9292 4.66987 39.9292H36.5283C36.9975 39.9292 37.3778 39.5488 37.3778 39.0796V32.2832C37.3778 31.814 36.9975 31.4336 36.5283 31.4336Z" fill="#67BF2F"/>
<path d="M33.557 32.2852H8.07031V32.7099H33.557V32.2852Z" fill="#52E000"/>
<path d="M39.0837 7.64432C39.0837 7.41494 38.884 6.20857 38.4805 5.02344H3.15587C2.75658 6.20857 2.55268 7.41494 2.55268 7.64432L1.70312 21.2372V30.1576C1.70312 30.6249 3.82702 32.2815 8.92436 32.2815H32.712C39.0837 32.2815 39.9332 30.6249 39.9332 30.1576V21.2372L39.0837 7.64432Z" fill="black"/>
<path d="M3.39934 5.52344C3.1827 5.52344 2.64748 8.07211 2.64748 9.1468L2.125 21.2403V27.1872C2.125 28.8863 4.67367 29.7358 7.64712 29.7358H33.5586C37.3816 29.7358 39.5055 29.311 39.5055 28.0367V21.2403L38.9831 9.1468C38.9831 8.07211 38.4478 5.52344 38.2312 5.52344H3.39934Z" fill="url(#paint5_linear_8641_119027)"/>
<path d="M2.88281 7.22255H38.7426C38.5727 6.32627 38.3476 5.52344 38.2287 5.52344H3.39679C3.27361 5.52344 3.05272 6.32627 2.88281 7.22255Z" fill="#3A6383"/>
<path d="M33.5586 28.037H7.64712C4.67367 28.037 2.125 27.1874 2.125 25.4883V27.1874C2.125 28.8865 4.67367 29.7361 7.64712 29.7361H33.5586C37.3816 29.7361 39.5055 29.3113 39.5055 28.037V26.3378C39.5055 27.6122 37.3816 28.037 33.5586 28.037Z" fill="#3A6383"/>
<path d="M39.5055 41.205C39.5055 41.6723 39.1147 42.0546 38.639 42.0546H2.99155C2.51155 42.0546 2.125 41.6723 2.125 41.205C2.125 40.7378 2.5158 40.3555 2.99155 40.3555H38.639C39.119 40.3555 39.5055 40.7378 39.5055 41.205Z" fill="#459400"/>
<path d="M33.1294 38.2305H8.49219V38.6552H33.1294V38.2305Z" fill="#246900"/>
<path d="M39.9332 37.8047H1.70312V38.2295H39.9332V37.8047Z" fill="#64B926"/>
<path d="M16.5654 1.27344H16.1406V2.123H16.5654V1.27344Z" fill="#3B7A00"/>
<path d="M25.4873 1.27344H25.0625V2.123H25.4873V1.27344Z" fill="#3B7A00"/>
<path d="M9.77392 38.6569C9.77392 38.6569 9.39162 38.4021 8.49958 37.8074C8.49958 37.8074 3.48295 33.9844 2.1279 33.9844H1.70312V38.6569H9.77392Z" fill="black"/>
<path d="M8.49959 37.8074C8.49959 37.8074 3.82702 33.9844 2.55268 33.9844H1.98348C1.70312 34.9699 1.70312 35.624 1.70312 37.3189V38.2322H4.67658C5.14383 38.2322 8.49959 38.2746 8.49959 37.8074Z" fill="url(#paint6_linear_8641_119027)"/>
<path d="M5.95091 38.2321H1.70312V37.3826H4.2518L5.95091 38.2321Z" fill="url(#paint7_linear_8641_119027)"/>
<path d="M3.61373 37.8056C3.96563 37.8056 4.2509 37.5203 4.2509 37.1684C4.2509 36.8165 3.96563 36.5312 3.61373 36.5312C3.26183 36.5312 2.97656 36.8165 2.97656 37.1684C2.97656 37.5203 3.26183 37.8056 3.61373 37.8056Z" fill="#B3B3B3"/>
<path d="M2.97601 36.9559C3.56251 36.9559 4.03796 36.4805 4.03796 35.894C4.03796 35.3075 3.56251 34.832 2.97601 34.832C2.38951 34.832 1.91406 35.3075 1.91406 35.894C1.91406 36.4805 2.38951 36.9559 2.97601 36.9559Z" fill="#B3B3B3"/>
<path d="M2.98092 36.5321C3.33282 36.5321 3.61809 36.2469 3.61809 35.895C3.61809 35.5431 3.33282 35.2578 2.98092 35.2578C2.62902 35.2578 2.34375 35.5431 2.34375 35.895C2.34375 36.2469 2.62902 36.5321 2.98092 36.5321Z" fill="white"/>
<path d="M31.8594 38.6569C31.8594 38.6569 32.2417 38.4021 33.1337 37.8074C33.1337 37.8074 38.1503 33.9844 39.5054 33.9844H39.9302V38.6569H31.8594Z" fill="black"/>
<path d="M33.1328 37.8074C33.1328 37.8074 37.8054 33.9844 39.0797 33.9844H39.6489C39.9293 34.9699 39.9293 35.624 39.9293 37.3189V38.2322H36.9558C36.4886 38.2322 33.1328 38.2746 33.1328 37.8074Z" fill="url(#paint8_linear_8641_119027)"/>
<path d="M35.6797 38.2324H39.9275V37.3828H37.3788L35.6797 38.2324Z" fill="url(#paint9_linear_8641_119027)"/>
<path d="M38.02 37.8056C38.3719 37.8056 38.6571 37.5203 38.6571 37.1684C38.6571 36.8165 38.3719 36.5312 38.02 36.5312C37.6681 36.5312 37.3828 36.8165 37.3828 37.1684C37.3828 37.5203 37.6681 37.8056 38.02 37.8056Z" fill="#B3B3B3"/>
<path d="M38.6557 36.9598C39.2422 36.9598 39.7176 36.4844 39.7176 35.8979C39.7176 35.3114 39.2422 34.8359 38.6557 34.8359C38.0692 34.8359 37.5938 35.3114 37.5938 35.8979C37.5938 36.4844 38.0692 36.9598 38.6557 36.9598Z" fill="#B3B3B3"/>
<path d="M38.6528 36.5321C39.0047 36.5321 39.29 36.2469 39.29 35.895C39.29 35.5431 39.0047 35.2578 38.6528 35.2578C38.3009 35.2578 38.0156 35.5431 38.0156 35.895C38.0156 36.2469 38.3009 36.5321 38.6528 36.5321Z" fill="white"/>
<path d="M14.4446 29.7358C14.4446 29.7358 14.8693 23.3641 19.9667 16.5677C25.064 9.77122 32.71 5.52344 32.71 5.52344H7.22332C7.22332 5.52344 5.5242 10.196 5.09942 18.6916C4.67465 27.1872 6.37376 29.7358 6.37376 29.7358H14.4446Z" fill="#A8BFD1"/>
<path d="M6.33248 29.674C6.75726 29.7122 7.19478 29.7335 7.64505 29.7335H14.4415C14.4415 29.7335 14.484 29.1048 14.7006 28.0344H7.64505C6.96115 28.0344 6.30699 27.9876 5.69531 27.8984C5.96717 28.9646 6.23903 29.5041 6.33673 29.674H6.33248Z" fill="#80A1BC"/>
<path d="M16.137 5.52344C16.137 5.52344 12.7388 10.6208 11.4644 17.842C10.1901 25.0633 10.1901 28.4615 10.1901 28.4615C10.1901 28.4615 9.34052 22.9394 10.1901 16.9925C11.0396 11.0456 14.0131 5.52344 14.0131 5.52344H16.137Z" fill="#80A1BC"/>
<path d="M31.8541 37.8047H9.76562V38.2295H31.8541V37.8047Z" fill="#67BE2E"/>
<path d="M4.67277 41.4169C5.37657 41.4169 5.94711 40.9414 5.94711 40.3549C5.94711 39.7684 5.37657 39.293 4.67277 39.293C3.96898 39.293 3.39844 39.7684 3.39844 40.3549C3.39844 40.9414 3.96898 41.4169 4.67277 41.4169Z" fill="#80C905"/>
<path d="M4.66987 40.9931C5.13907 40.9931 5.51943 40.7078 5.51943 40.3559C5.51943 40.004 5.13907 39.7188 4.66987 39.7188C4.20067 39.7188 3.82031 40.004 3.82031 40.3559C3.82031 40.7078 4.20067 40.9931 4.66987 40.9931Z" fill="black"/>
<path d="M4.67478 40.5683C4.90938 40.5683 5.09956 40.3781 5.09956 40.1435C5.09956 39.9089 4.90938 39.7188 4.67478 39.7188C4.44018 39.7188 4.25 39.9089 4.25 40.1435C4.25 40.3781 4.44018 40.5683 4.67478 40.5683Z" fill="#C2C2C2"/>
<path d="M36.5321 41.4169C37.2359 41.4169 37.8065 40.9414 37.8065 40.3549C37.8065 39.7684 37.2359 39.293 36.5321 39.293C35.8284 39.293 35.2578 39.7684 35.2578 40.3549C35.2578 40.9414 35.8284 41.4169 36.5321 41.4169Z" fill="#80C905"/>
<path d="M36.5292 40.9931C36.9984 40.9931 37.3788 40.7078 37.3788 40.3559C37.3788 40.004 36.9984 39.7188 36.5292 39.7188C36.06 39.7188 35.6797 40.004 35.6797 40.3559C35.6797 40.7078 36.06 40.9931 36.5292 40.9931Z" fill="black"/>
<path d="M36.5342 40.5683C36.7688 40.5683 36.9589 40.3781 36.9589 40.1435C36.9589 39.9089 36.7688 39.7188 36.5342 39.7188C36.2996 39.7188 36.1094 39.9089 36.1094 40.1435C36.1094 40.3781 36.2996 40.5683 36.5342 40.5683Z" fill="#C2C2C2"/>
<path d="M29.8904 7.22255C31.5768 6.11813 32.7067 5.52344 32.7067 5.52344H7.21999C7.21999 5.52344 7.0076 6.10538 6.71875 7.22255H29.8904Z" fill="#80A1BC"/>
</g>
<defs>
<linearGradient id="paint0_linear_8641_119027" x1="1.97522" y1="15.058" x2="0.700885" y2="11.235" gradientUnits="userSpaceOnUse">
<stop stop-color="#59A300"/>
<stop offset="1" stop-color="#73D657"/>
</linearGradient>
<linearGradient id="paint1_linear_8641_119027" x1="40.6315" y1="15.058" x2="39.3571" y2="11.235" gradientUnits="userSpaceOnUse">
<stop stop-color="#59A300"/>
<stop offset="1" stop-color="#73D657"/>
</linearGradient>
<linearGradient id="paint2_linear_8641_119027" x1="4.46419" y1="33.9824" x2="4.46419" y2="38.2302" gradientUnits="userSpaceOnUse">
<stop stop-color="#4D4D4D"/>
<stop offset="1"/>
</linearGradient>
<linearGradient id="paint3_linear_8641_119027" x1="37.1751" y1="7.0393e-05" x2="37.1751" y2="7.0393e-05" gradientUnits="userSpaceOnUse">
<stop stop-color="#4D4D4D"/>
<stop offset="1"/>
</linearGradient>
<linearGradient id="paint4_linear_8641_119027" x1="20.8104" y1="18.2637" x2="20.8104" y2="6.36988" gradientUnits="userSpaceOnUse">
<stop stop-color="#59A300"/>
<stop offset="1" stop-color="#73D657"/>
</linearGradient>
<linearGradient id="paint5_linear_8641_119027" x1="20.8153" y1="25.0633" x2="20.8153" y2="8.07211" gradientUnits="userSpaceOnUse">
<stop stop-color="#80A1BC"/>
<stop offset="1" stop-color="#9FB8CC"/>
</linearGradient>
<linearGradient id="paint6_linear_8641_119027" x1="4.97817" y1="34.0566" x2="5.07587" y2="37.1447" gradientUnits="userSpaceOnUse">
<stop stop-color="#BDBDBD"/>
<stop offset="1" stop-color="#1B1B1B"/>
</linearGradient>
<linearGradient id="paint7_linear_8641_119027" x1="3.59764" y1="38.2916" x2="4.30702" y2="36.7836" gradientUnits="userSpaceOnUse">
<stop stop-color="#FF9100"/>
<stop offset="1" stop-color="#FDD657"/>
</linearGradient>
<linearGradient id="paint8_linear_8641_119027" x1="36.6542" y1="0.00207279" x2="36.5565" y2="37.1447" gradientUnits="userSpaceOnUse">
<stop stop-color="#BDBDBD"/>
<stop offset="1" stop-color="#1B1B1B"/>
</linearGradient>
<linearGradient id="paint9_linear_8641_119027" x1="38.033" y1="38.2918" x2="37.3193" y2="36.7839" gradientUnits="userSpaceOnUse">
<stop stop-color="#FF9100"/>
<stop offset="1" stop-color="#FDD657"/>
</linearGradient>
<clipPath id="clip0_8641_119027">
<rect width="41.6283" height="48" fill="white"/>
</clipPath>
</defs>
</svg>
