<svg width="65" height="48" viewBox="0 0 65 48" fill="none" xmlns="http://www.w3.org/2000/svg">
<path opacity="0.3" d="M0 23.2677L12.8244 16.8555L62.2901 41.5883L49.4656 48.0005L0 23.2677Z" fill="black"/>
<path d="M61.2848 27.2969L61.7428 27.5717C62.4756 28.0297 63.1168 28.7625 63.4832 29.587C63.7581 30.2282 64.1245 30.8694 64.1245 31.5106V32.5182C64.1245 32.8847 63.8497 33.2511 63.5748 33.4343C63.3 33.6175 63.0252 33.4343 63.0252 33.1595V31.6022C63.0252 31.419 63.1168 31.2358 63.1168 31.1442C63.3 30.8694 63.4832 30.503 63.3 30.1366C62.9336 29.1289 62.2008 28.2129 61.3764 27.7549L61.1016 27.5717C61.1016 27.4801 61.1932 27.2969 61.2848 27.2969Z" fill="#2D3134"/>
<g opacity="0.39">
<path d="M61.2848 27.2969L61.7428 27.5717C62.4756 28.0297 63.1168 28.7625 63.4832 29.587C63.7581 30.2282 64.1245 30.8694 64.1245 31.5106V32.5182C64.1245 32.8847 63.8497 33.2511 63.5748 33.4343C63.3 33.6175 63.0252 33.4343 63.0252 33.1595V31.6022C63.0252 31.419 63.1168 31.2358 63.1168 31.1442C63.3 30.8694 63.4832 30.503 63.3 30.1366C62.9336 29.1289 62.2008 28.2129 61.3764 27.7549L61.1016 27.5717C61.1016 27.4801 61.1932 27.2969 61.2848 27.2969Z" fill="black"/>
</g>
<path d="M10.625 26.3795L13.0067 25.1887V23.9062H10.625V26.3795Z" fill="#2D3134"/>
<path opacity="0.39" d="M10.625 26.3795L13.0067 25.1887V23.9062H10.625V26.3795Z" fill="black"/>
<path d="M36.2734 39.2077L38.6551 38.0168V36.7344H36.2734V39.2077Z" fill="#2D3134"/>
<path opacity="0.39" d="M36.2734 39.2077L38.6551 38.0168V36.7344H36.2734V39.2077Z" fill="black"/>
<path d="M14.8395 24.1825C14.1983 23.816 13.5571 23.816 13.0991 23.9992L11.8166 24.6405C11.3586 24.8237 10.9922 25.3733 10.9922 26.1061C10.9922 27.4802 12.183 29.2206 13.5571 29.9534C14.2899 30.3199 14.9311 30.3199 15.3891 30.1367C15.3891 30.1367 16.6716 29.4954 16.7632 29.4038C17.2212 29.129 17.4044 28.671 17.4044 28.0298C17.4044 26.5641 16.2136 24.8237 14.8395 24.1825Z" fill="#2D3134"/>
<path opacity="0.39" d="M15.3906 30.0448C15.5738 29.9532 16.6731 29.4036 16.7647 29.4036C17.2227 29.1288 17.4059 28.6707 17.4059 28.0295C17.4059 27.4799 17.2227 26.8387 16.9479 26.2891L15.6654 26.9303C15.9402 27.4799 16.1235 28.1211 16.1235 28.6707C16.1235 29.312 15.8486 29.8616 15.3906 30.0448Z" fill="black"/>
<path d="M15.4801 28.3049C15.4801 29.4041 14.6557 29.7706 13.5565 29.2209C12.4572 28.6713 11.6328 27.3889 11.6328 26.2896C11.6328 25.1904 12.4572 24.824 13.5565 25.3736C14.6557 25.9232 15.4801 27.2057 15.4801 28.3049Z" fill="#A9ABB0"/>
<path d="M13.7397 29.218C12.6404 28.6684 11.816 27.386 11.816 26.2867C11.816 25.7371 11.9992 25.3707 12.3656 25.1875C11.9076 25.2791 11.6328 25.7371 11.6328 26.2867C11.6328 27.386 12.4572 28.6684 13.5565 29.218C14.1061 29.4928 14.5641 29.4928 14.9305 29.3096C14.5641 29.4928 14.1977 29.4012 13.7397 29.218Z" fill="#808285"/>
<path d="M14.5629 27.6637C14.5629 28.1217 14.1965 28.3049 13.7385 28.0301C13.2805 27.7553 12.9141 27.2973 12.9141 26.8393C12.9141 26.3813 13.2805 26.1981 13.7385 26.4729C14.1965 26.7477 14.5629 27.2057 14.5629 27.6637Z" fill="#2D3134"/>
<path opacity="0.39" d="M14.5629 27.6637C14.5629 28.1217 14.1965 28.3049 13.7385 28.0301C13.2805 27.7553 12.9141 27.2973 12.9141 26.8393C12.9141 26.3813 13.2805 26.1981 13.7385 26.4729C14.1965 26.7477 14.5629 27.2057 14.5629 27.6637Z" fill="black"/>
<path d="M14.3832 27.7536C14.3832 28.2116 14.0168 28.3948 13.5588 28.12C13.1008 27.9368 12.7344 27.3871 12.7344 26.9291C12.7344 26.4711 13.1008 26.2879 13.5588 26.5627C14.0168 26.7459 14.3832 27.2955 14.3832 27.7536Z" fill="#2D3134"/>
<path opacity="0.06" d="M16.122 28.6695C16.122 30.0436 14.9311 30.6848 13.5571 29.952C12.183 29.2192 10.9922 27.4787 10.9922 26.1047C10.9922 24.7306 12.183 24.0894 13.5571 24.8222C14.9311 25.4634 16.122 27.2039 16.122 28.6695Z" fill="black"/>
<path d="M40.488 36.9168C39.8467 36.5504 39.2055 36.5504 38.7475 36.7336L37.4651 37.3748C37.007 37.558 36.6406 38.1077 36.6406 38.8405C36.6406 40.2145 37.8315 41.955 39.2055 42.6878C39.9383 43.0542 40.5796 43.0542 41.0376 42.871C41.0376 42.871 42.32 42.2298 42.4116 42.1382C42.8696 41.8634 43.0528 41.4054 43.0528 40.7642C43.0528 39.3901 41.862 37.6497 40.488 36.9168Z" fill="#2D3134"/>
<path opacity="0.39" d="M41.0391 42.8729C41.2223 42.7813 42.3215 42.2317 42.4131 42.2317C42.8711 41.9569 43.0543 41.4989 43.0543 40.8576C43.0543 40.308 42.8711 39.6668 42.5963 39.1172L41.3139 39.7584C41.5887 40.308 41.7719 40.9492 41.7719 41.4989C41.7719 42.1401 41.4971 42.5981 41.0391 42.8729Z" fill="black"/>
<path d="M41.1286 41.1291C41.1286 42.2284 40.3041 42.5948 39.2049 42.0452C38.1057 41.4955 37.2812 40.2131 37.2812 39.1139C37.2812 38.0146 38.1057 37.6482 39.2049 38.1978C40.3041 38.7474 41.1286 40.0299 41.1286 41.1291Z" fill="#A9ABB0"/>
<path d="M39.3881 41.9524C38.2889 41.4028 37.4645 40.1203 37.4645 39.0211C37.4645 38.4715 37.6477 38.1051 38.0141 37.9219C37.5561 38.0135 37.2812 38.4715 37.2812 39.0211C37.2812 40.1203 38.1057 41.4028 39.2049 41.9524C39.7545 42.2272 40.2125 42.2272 40.579 42.044C40.2125 42.2272 39.8461 42.2272 39.3881 41.9524Z" fill="#808285"/>
<path d="M40.1176 40.4879C40.1176 40.9459 39.7512 41.1291 39.2932 40.8543C38.8352 40.6711 38.4688 40.1215 38.4688 39.6635C38.4688 39.2055 38.8352 39.0223 39.2932 39.2971C39.8428 39.4803 40.1176 40.0299 40.1176 40.4879Z" fill="#2D3134"/>
<path opacity="0.39" d="M40.1176 40.4879C40.1176 40.9459 39.7512 41.1291 39.2932 40.8543C38.8352 40.6711 38.4688 40.1215 38.4688 39.6635C38.4688 39.2055 38.8352 39.0223 39.2932 39.2971C39.8428 39.4803 40.1176 40.0299 40.1176 40.4879Z" fill="black"/>
<path d="M40.0317 40.5817C40.0317 41.0397 39.6653 41.2229 39.2072 40.9481C38.7492 40.7649 38.3828 40.2153 38.3828 39.7573C38.3828 39.2992 38.7492 39.116 39.2072 39.3908C39.6653 39.574 40.0317 40.1237 40.0317 40.5817Z" fill="#2D3134"/>
<path opacity="0.06" d="M41.7704 41.4049C41.7704 42.7789 40.5796 43.4202 39.2055 42.6873C37.8315 41.9545 36.6406 40.3057 36.6406 38.84C36.6406 37.3744 37.8315 36.8247 39.2055 37.5576C40.5796 38.2904 41.7704 40.0308 41.7704 41.4049Z" fill="black"/>
<path d="M56.8855 22.9924L10.9924 0L0 5.49618V19.2366L2.38168 20.4275L11.084 24.7328C11.3588 24.3664 11.9084 24.0916 12.458 24.0916C12.916 24.0916 13.2824 24.1832 13.7405 24.458C14.8397 25.0076 15.8473 26.1985 16.3053 27.3893L18.3206 28.3969V30.229L25.6489 33.8931V32.0611L36.6412 37.5572C36.916 37.0992 37.4656 36.916 38.0153 36.916C38.4733 36.916 38.8397 37.0076 39.2977 37.2824C40.4885 37.8321 41.4046 39.0229 41.8626 40.2137L51.2977 44.8855L62.2901 39.3893V31.6946C62.2901 28.0305 60.1832 24.6412 56.8855 22.9924Z" fill="#67BF2F"/>
<path d="M51.2969 46.7189L62.2892 41.2227V39.3906L51.2969 44.8868V46.7189Z" fill="#262626"/>
<path opacity="0.3" d="M0.734375 15.6614V8.88281L17.5893 17.3103V24.0889L0.734375 15.6614Z" fill="black"/>
<path d="M17.4026 17.4044L0.914062 9.16016V15.5724L17.4026 23.8166V17.4044Z" fill="#656565"/>
<path opacity="0.2" d="M17.4026 17.4044L0.914062 9.16016L17.4026 20.9769V17.4044Z" fill="black"/>
<path opacity="0.3" d="M1.09727 15.4808V9.25176L0.914062 9.16016V15.5724L17.4026 23.8166V23.6334L1.09727 15.4808Z" fill="black"/>
<path opacity="0.3" d="M18.3203 16.4883V30.2287L21.9844 32.0608V18.3203L18.3203 16.4883ZM21.8012 31.786L18.5035 30.1371V16.7631L21.8012 18.4119V31.786Z" fill="black"/>
<path opacity="0.3" d="M21.9844 18.3203V32.0608L25.6485 33.8928V20.1524L21.9844 18.3203ZM25.4653 33.618L22.1676 31.9692V18.5951L25.4653 20.244V33.618Z" fill="black"/>
<path opacity="0.3" d="M49.2812 39.2099V33.2557L49.6477 33.1641C50.2889 34.4465 50.5637 35.8205 50.5637 37.1946V39.8511L49.2812 39.2099Z" fill="black"/>
<path d="M49.4609 33.2578V39.1204L50.377 39.5784V37.1967C50.377 35.8227 50.0106 34.4487 49.4609 33.2578Z" fill="#656565"/>
<path opacity="0.3" d="M44.8828 29.7734V41.6818L48.5469 43.5139V31.6055L44.8828 29.7734ZM48.3637 43.2391L45.066 41.5902V30.0482L48.3637 31.6971V43.2391Z" fill="black"/>
<path opacity="0.3" d="M22.7188 26.1985V20.3359L24.9172 21.4352V27.2978L22.7188 26.1985Z" fill="black"/>
<path d="M22.8984 20.6094L24.7305 21.5254V27.0216L22.8984 26.1056V20.6094Z" fill="#656565"/>
<path opacity="0.3" d="M45.6172 37.6495V31.6953L47.8157 32.7945V38.7487L45.6172 37.6495Z" fill="black"/>
<path d="M45.7969 32.0625L47.6289 32.9785V38.4747L45.7969 37.5587V32.0625Z" fill="#656565"/>
<path opacity="0.3" d="M45.9801 37.4671V32.1541L45.7969 32.0625V37.5587L47.6289 38.4747V38.2915L45.9801 37.4671Z" fill="black"/>
<path opacity="0.3" d="M19.0547 24.3665V18.5039L21.2532 19.6031V25.4657L19.0547 24.3665Z" fill="black"/>
<path d="M19.2344 18.7773L21.0664 19.6934V25.1896L19.2344 24.2735V18.7773Z" fill="#656565"/>
<path opacity="0.3" d="M23.0816 26.014V20.701L22.8984 20.6094V26.1056L24.7305 27.0216V26.8384L23.0816 26.014Z" fill="black"/>
<path opacity="0.3" d="M19.4176 24.1819V18.8689L19.2344 18.7773V24.2735L21.0664 25.1896V25.0063L19.4176 24.1819Z" fill="black"/>
<path opacity="0.3" d="M26.3828 28.4896V21.7109L44.1538 30.5964V37.3751L26.3828 28.4896Z" fill="black"/>
<path d="M43.9671 30.6867L26.5625 21.9844V28.3966L43.9671 37.0989V30.6867Z" fill="#656565"/>
<path opacity="0.2" d="M43.9671 30.6867L26.5625 21.9844L43.9671 33.8012V30.6867Z" fill="black"/>
<path opacity="0.3" d="M26.7457 28.305V22.076L26.5625 21.9844V28.3966L43.9671 37.0989V36.9157L26.7457 28.305Z" fill="black"/>
<path d="M53.1289 43.0527L51.2969 43.9688V43.0527L53.1289 42.1367V43.0527Z" fill="#999999"/>
<path d="M50.3828 43.5137L51.2988 43.9717V43.0557L50.3828 42.5977V43.5137Z" fill="#FF9900"/>
<path d="M62.293 38.4746L60.4609 39.3907V38.4746L62.293 37.5586V38.4746Z" fill="#999999"/>
<path d="M54.9609 43.2393V44.1553L59.5411 41.8652V40.9492L54.9609 43.2393Z" fill="#999999"/>
<path opacity="0.3" d="M52.0336 37.19C52.0336 34.7168 51.2092 32.3351 49.652 30.503L49.4688 30.3198L59.0871 25.4648L59.1787 25.5564C60.7359 27.2053 61.5603 29.4038 61.5603 31.6939V35.358L52.0336 40.1213V37.19Z" fill="black"/>
<path d="M52.2098 39.8491L61.3701 35.2689V31.6964C61.3701 29.4979 60.5457 27.2994 59.08 25.7422L49.8281 30.4139C51.3854 32.3376 52.3014 34.7193 52.3014 37.2842L52.2098 39.8491Z" fill="#656565"/>
<path opacity="0.1" d="M47.633 20.8848L42.1369 23.6329L32.9766 19.0528L38.4727 16.3047L47.633 20.8848Z" fill="white"/>
<path opacity="0.06" d="M42.1369 23.8141V23.6309L32.9766 19.0508V19.234L42.1369 23.8141Z" fill="black"/>
<path opacity="0.39" d="M42.1406 23.8141V23.6309L47.6368 20.8828V21.066L42.1406 23.8141Z" fill="black"/>
<path opacity="0.1" d="M21.9846 8.06062L16.4884 10.8087L7.32812 6.22856L12.8243 3.48047L21.9846 8.06062Z" fill="white"/>
<path opacity="0.06" d="M16.4884 10.9899V10.8067L7.32812 6.22656V6.40977L16.4884 10.9899Z" fill="black"/>
<path opacity="0.39" d="M16.4844 10.9938V10.8106L21.9806 8.0625V8.24571L16.4844 10.9938Z" fill="black"/>
<path opacity="0.3" d="M51.2969 42.32L62.2892 36.8238V36.6406L51.2969 42.1368V42.32Z" fill="black"/>
<path opacity="0.6" d="M54.0469 41.861L59.5431 39.1129V38.9297L54.0469 41.6778V41.861Z" fill="black"/>
<path opacity="0.6" d="M54.0469 42.2282L59.5431 39.4801V39.2969L54.0469 42.045V42.2282Z" fill="black"/>
<path opacity="0.6" d="M54.0469 42.5954L59.5431 39.8473V39.6641L54.0469 42.4122V42.5954Z" fill="black"/>
<path opacity="0.6" d="M54.0469 42.9625L59.5431 40.2145V40.0312L54.0469 42.7793V42.9625Z" fill="black"/>
<path opacity="0.15" d="M51.2969 42.5036L62.2892 37.0074V36.8242L51.2969 42.3204V42.5036Z" fill="white"/>
<path opacity="0.3" d="M51.295 42.319L48.5469 40.9449V40.7617L51.295 42.1358V42.319Z" fill="black"/>
<path opacity="0.15" d="M51.295 42.5026L48.5469 41.1285V40.9453L51.295 42.3194V42.5026Z" fill="white"/>
<path opacity="0.3" d="M44.8851 39.114L25.6484 29.4957V29.3125L44.8851 38.9308V39.114Z" fill="black"/>
<path opacity="0.15" d="M44.8851 39.2976L25.6484 29.6793V29.4961L44.8851 39.1144V39.2976Z" fill="white"/>
<path opacity="0.3" d="M18.3206 25.8279L0 16.6676V16.4844L18.3206 25.6447V25.8279Z" fill="black"/>
<path opacity="0.15" d="M18.3206 26.0115L0 16.8512V16.668L18.3206 25.8283V26.0115Z" fill="white"/>
<path d="M10.626 26.1046C10.626 25.555 10.8092 25.097 11.084 24.8222L0 19.2344V21.0664L10.626 26.3794C10.626 26.2878 10.626 26.1962 10.626 26.1046Z" fill="#262626"/>
<path d="M16.2109 27.3867C16.3941 27.8447 16.4857 28.2111 16.4857 28.6692C16.4857 28.8524 16.4857 29.1272 16.3941 29.3104L18.3178 30.2264V28.3944L16.2109 27.3867Z" fill="#262626"/>
<path d="M36.2744 38.8411C36.2744 38.2915 36.4576 37.8335 36.6408 37.5587L25.6484 32.0625V33.8946L36.2744 39.2075C36.2744 39.1159 36.2744 39.0243 36.2744 38.8411Z" fill="#262626"/>
<path d="M41.9531 40.2148C42.1363 40.6729 42.1363 41.0393 42.1363 41.4973C42.1363 41.7721 42.1363 41.9553 42.0447 42.1385L51.2966 46.7187V44.8866L41.9531 40.2148Z" fill="#262626"/>
<path opacity="0.5" d="M52.0312 40.1208V39.2048L61.558 34.4414V35.3574L52.0312 40.1208Z" fill="black"/>
<path opacity="0.5" d="M49.2812 39.2051V38.2891L50.5637 38.9303V39.8463L49.2812 39.2051Z" fill="black"/>
<path d="M57.0666 34.6273C56.975 34.5357 56.8834 34.5357 56.7918 34.6273L53.3109 38.5662C53.2193 38.6578 53.2193 38.7494 53.3109 38.841C53.4025 38.9326 53.4941 38.9326 53.5857 38.841L54.5017 37.7418V38.6578L54.7765 38.4746V37.467L57.0666 34.8105C57.1582 34.8105 57.1582 34.7189 57.0666 34.6273Z" fill="#2D3134"/>
<path d="M60.3635 32.7953C60.2719 32.7037 60.1803 32.7037 60.0887 32.7953L56.6078 36.7342C56.5162 36.8258 56.5162 36.9174 56.6078 37.009C56.6994 37.1006 56.791 37.1006 56.8826 37.009L57.707 36.093V37.1006L57.9818 37.009V35.7266L60.3635 32.9785C60.4551 32.9785 60.4551 32.8869 60.3635 32.7953Z" fill="#2D3134"/>
<path opacity="0.2" d="M56.2455 26.9305C56.7035 28.3961 56.9783 29.8618 56.9783 31.419C56.9783 34.0755 56.2455 36.5488 55.0547 38.6557L56.7035 37.8313C56.7035 37.8313 60.0013 34.7168 60.0013 30.2282C60.0013 28.5793 59.6348 26.9305 58.9936 25.4648L56.2455 26.9305Z" fill="black"/>
<path opacity="0.2" d="M24.7305 26.9306V23.816L22.8984 21.8008V24.0909L24.7305 26.9306Z" fill="black"/>
<path opacity="0.2" d="M21.0664 22.718V20.7028L19.2344 18.6875V19.8783L21.0664 22.718Z" fill="black"/>
<path opacity="0.2" d="M52.2846 42.7778C52.1249 42.974 52.0909 43.2107 52.2086 43.3065C52.3263 43.4023 52.5512 43.321 52.7109 43.1248C52.8705 42.9286 52.9046 42.6919 52.7869 42.596C52.6691 42.5002 52.4443 42.5816 52.2846 42.7778Z" fill="black"/>
<path opacity="0.2" d="M51.7143 43.0161C51.5546 43.2123 51.5205 43.449 51.6383 43.5448C51.756 43.6406 51.9809 43.5592 52.1405 43.363C52.3002 43.1669 52.3343 42.9301 52.2165 42.8343C52.0988 42.7385 51.8739 42.8199 51.7143 43.0161Z" fill="black"/>
<path opacity="0.2" d="M61.5346 38.1958C61.3749 38.392 61.3409 38.6287 61.4586 38.7245C61.5763 38.8203 61.8012 38.7389 61.9609 38.5427C62.1205 38.3465 62.1546 38.1098 62.0369 38.014C61.9191 37.9182 61.6943 37.9996 61.5346 38.1958Z" fill="black"/>
<path opacity="0.2" d="M60.9643 38.4379C60.8046 38.6341 60.7705 38.8709 60.8883 38.9667C61.006 39.0625 61.2309 38.9811 61.3905 38.7849C61.5502 38.5887 61.5843 38.352 61.4665 38.2562C61.3488 38.1604 61.1239 38.2418 60.9643 38.4379Z" fill="black"/>
<path opacity="0.2" d="M53.1289 43.0547L51.2969 43.9707V43.0547H53.1289Z" fill="white"/>
<path opacity="0.2" d="M62.293 38.4746L60.4609 39.3907L62.293 37.5586V38.4746Z" fill="white"/>
<path d="M51.1098 32.6094L51.5678 32.7926C52.3006 33.2506 52.9418 33.9834 53.3082 34.8078C53.5831 35.4491 53.9495 36.0903 53.9495 36.7315V37.7391C53.9495 38.1056 53.6747 38.472 53.3998 38.6552C53.125 38.8384 52.8502 38.6552 52.8502 38.3804V36.8231C52.8502 36.6399 52.9418 36.4567 52.9418 36.3651C53.125 36.0903 53.3082 35.7239 53.125 35.3575C52.7586 34.3498 52.0258 33.4338 51.2014 32.9758L50.9266 32.7926C50.835 32.7926 50.9266 32.6094 51.1098 32.6094Z" fill="#2D3134"/>
<path opacity="0.39" d="M62.2887 31.6958C62.2887 28.9477 61.1895 26.3828 59.2658 24.5508L48.2734 30.047C50.1971 31.879 51.2963 34.4439 51.2963 37.192V46.7187L62.2887 41.2225V31.6958Z" fill="black"/>
<path opacity="0.06" d="M45.8931 28.3969L0 5.49609V21.0686L10.626 26.3816C10.626 26.29 10.626 26.1984 10.626 26.1068C10.626 25.5572 10.8092 25.0991 11.084 24.8243C11.3588 24.4579 11.9084 24.1831 12.458 24.1831C12.916 24.1831 13.2824 24.2747 13.7405 24.5495C14.8397 25.0991 15.8473 26.29 16.3053 27.4808C16.4885 27.9388 16.5801 28.3052 16.5801 28.7633C16.5801 28.9465 16.5801 29.2213 16.4885 29.4045L36.3664 39.2976C36.3664 39.206 36.3664 39.0228 36.3664 38.9312C36.3664 38.3816 36.5496 37.9236 36.7328 37.6488C37.0076 37.1907 37.5572 37.0075 38.1069 37.0075C38.5649 37.0075 38.9313 37.0991 39.3893 37.3739C40.5801 37.9236 41.4962 39.1144 41.9542 40.3052C42.1374 40.7633 42.1374 41.1297 42.1374 41.5877C42.1374 41.8625 42.1374 42.0457 42.0458 42.2289L51.2977 46.7175V37.1907C51.2977 33.5266 49.1908 30.1373 45.8931 28.3969Z" fill="black"/>
</svg>
