<svg width="16" height="16" viewBox="0 0 16 16" fill="none" xmlns="http://www.w3.org/2000/svg">
<path d="M12.5602 9.14413C12.3346 9.14317 12.1184 9.05336 11.9583 8.89404C11.7981 8.73246 11.7082 8.51388 11.7082 8.28606C11.7082 8.05823 11.7981 7.83965 11.9583 7.67808L13.7814 5.84983C13.9413 5.68964 14.0681 5.49942 14.1547 5.29004C14.2412 5.08065 14.2858 4.85622 14.2858 4.62956C14.2858 4.40289 14.2412 4.17846 14.1547 3.96907C14.0681 3.75969 13.9413 3.56947 13.7814 3.40929L12.5602 2.1847C12.2313 1.87297 11.7959 1.69929 11.3434 1.69929C10.8908 1.69929 10.4555 1.87297 10.1266 2.1847L8.30346 4.01295C8.13861 4.14522 7.93101 4.21205 7.7202 4.20073C7.50939 4.1894 7.3101 4.10071 7.16029 3.95154C7.01048 3.80237 6.92062 3.60316 6.90783 3.39184C6.89504 3.18052 6.9602 2.97186 7.09092 2.80562L8.91402 0.977368C9.56983 0.350008 10.4414 0 11.3477 0C12.254 0 13.1256 0.350008 13.7814 0.977368L14.9939 2.19333C15.3137 2.5137 15.5674 2.89414 15.7405 3.3129C15.9137 3.73167 16.0028 4.18055 16.0028 4.63387C16.0028 5.08719 15.9137 5.53607 15.7405 5.95483C15.5674 6.3736 15.3137 6.75404 14.9939 7.07441L13.1622 8.89404C13.002 9.05336 12.7858 9.14317 12.5602 9.14413Z" fill="#0072B2"/>
<path d="M4.65506 16.0023C4.2032 16.0026 3.7557 15.9137 3.33813 15.7406C2.92055 15.5675 2.54108 15.3135 2.22139 14.9933L1.00885 13.7773C0.68903 13.457 0.435313 13.0765 0.262207 12.6578C0.0891004 12.239 0 11.7901 0 11.3368C0 10.8835 0.0891004 10.4346 0.262207 10.0158C0.435313 9.59706 0.68903 9.21662 1.00885 8.89625L2.84055 7.068C3.00633 6.93692 3.2144 6.87157 3.42512 6.8844C3.63585 6.89723 3.8345 6.98734 3.98325 7.13757C4.132 7.28781 4.22044 7.48766 4.23173 7.69906C4.24303 7.91047 4.17638 8.11865 4.04449 8.28396L2.22139 10.1122C2.06148 10.2724 1.93462 10.4626 1.84807 10.672C1.76151 10.8814 1.71696 11.1058 1.71696 11.3325C1.71696 11.5591 1.76151 11.7836 1.84807 11.993C1.93462 12.2023 2.06148 12.3926 2.22139 12.5528L3.44252 13.7773C3.77142 14.0891 4.20681 14.2628 4.65936 14.2628C5.11191 14.2628 5.5473 14.0891 5.87619 13.7773L7.6993 11.9491C7.77434 11.8536 7.86865 11.7752 7.97604 11.7189C8.08344 11.6625 8.2015 11.6296 8.32247 11.6222C8.44344 11.6149 8.5646 11.6332 8.67801 11.6761C8.79141 11.719 8.89449 11.7854 8.98049 11.8711C9.0665 11.9567 9.13348 12.0596 9.17705 12.173C9.22062 12.2864 9.23979 12.4078 9.2333 12.5292C9.22682 12.6505 9.19483 12.7692 9.13943 12.8773C9.08403 12.9854 9.00647 13.0805 8.91183 13.1564L7.08873 14.9847C6.76975 15.3065 6.39059 15.562 5.97298 15.7366C5.55537 15.9112 5.10751 16.0015 4.65506 16.0023Z" fill="#0072B2"/>
<path d="M5.26338 11.5852C5.1502 11.5859 5.03801 11.5641 4.93324 11.5212C4.82846 11.4783 4.73316 11.415 4.65281 11.3351C4.57221 11.2549 4.50823 11.1596 4.46457 11.0545C4.42091 10.9494 4.39844 10.8367 4.39844 10.7228C4.39844 10.609 4.42091 10.4963 4.46457 10.3912C4.50823 10.2861 4.57221 10.1907 4.65281 10.1105L10.1307 4.62577C10.2918 4.46515 10.5098 4.375 10.737 4.375C10.9642 4.375 11.1821 4.46515 11.3433 4.62577C11.4239 4.70594 11.4878 4.80132 11.5315 4.90641C11.5751 5.0115 11.5976 5.12422 11.5976 5.23807C11.5976 5.35191 11.5751 5.46463 11.5315 5.56972C11.4878 5.67481 11.4239 5.77019 11.3433 5.85036L5.86535 11.3351C5.70517 11.4944 5.48898 11.5842 5.26338 11.5852Z" fill="#0072B2"/>
</svg>
