<svg width="16" height="17" viewBox="0 0 16 17" fill="none" xmlns="http://www.w3.org/2000/svg">
<g clip-path="url(#clip0_15825_81934)">
<path d="M8.00653 12.8202L3.54708 8.36073L4.56516 7.36401L7.2942 10.0931V0.449219H8.71886V10.0931L11.4479 7.36401L12.466 8.36073L8.00653 12.8202ZM2.41831 16.4492C1.92461 16.4492 1.50881 16.2789 1.17091 15.9383C0.833012 15.5976 0.664062 15.1806 0.664062 14.6873V13.0309H2.08872V14.6873C2.08872 14.7717 2.12388 14.8489 2.1942 14.9191C2.26434 14.9894 2.3416 15.0246 2.42598 15.0246H13.5871C13.6715 15.0246 13.7487 14.9894 13.8189 14.9191C13.8892 14.8489 13.9243 14.7717 13.9243 14.6873V13.0309H15.349V14.6873C15.349 15.1806 15.1786 15.5976 14.8378 15.9383C14.4969 16.2789 14.0797 16.4492 13.586 16.4492H2.41831Z" fill="white"/>
</g>
<defs>
<clipPath id="clip0_15825_81934">
<rect width="16" height="16" fill="white" transform="translate(0.00390625 0.449219)"/>
</clipPath>
</defs>
</svg>
