<svg width="17" height="17" viewBox="0 0 17 17" fill="none" xmlns="http://www.w3.org/2000/svg">
<g clip-path="url(#clip0_13192_299778)">
<path d="M8.23309 13.1131L3.77364 8.65369L4.79172 7.65698L7.52076 10.386V0.742188H8.94542V10.386L11.6745 7.65698L12.6925 8.65369L8.23309 13.1131ZM2.64487 16.7422C2.15117 16.7422 1.73537 16.5719 1.39747 16.2312C1.05957 15.8906 0.890625 15.4736 0.890625 14.9803V13.3238H2.31528V14.9803C2.31528 15.0647 2.35044 15.1419 2.42076 15.2121C2.4909 15.2824 2.56816 15.3175 2.65254 15.3175H13.8136C13.898 15.3175 13.9753 15.2824 14.0454 15.2121C14.1157 15.1419 14.1509 15.0647 14.1509 14.9803V13.3238H15.5756V14.9803C15.5756 15.4736 15.4051 15.8906 15.0643 16.2312C14.7235 16.5719 14.3062 16.7422 13.8125 16.7422H2.64487Z" fill="black"/>
</g>
<defs>
<clipPath id="clip0_13192_299778">
<rect width="16" height="16" fill="white" transform="translate(0.234375 0.742188)"/>
</clipPath>
</defs>
</svg>
