<svg width="12" height="13" viewBox="0 0 12 13" fill="none" xmlns="http://www.w3.org/2000/svg">
<g clip-path="url(#clip0_29117_140873)">
<path d="M6.00099 10.0351L2.6564 6.69047L3.41996 5.94293L5.46674 7.98971V0.756836H6.53524V7.98971L8.58202 5.94293L9.34558 6.69047L6.00099 10.0351ZM1.80983 12.7568C1.43955 12.7568 1.1277 12.6291 0.874278 12.3736C0.620853 12.1181 0.494141 11.8054 0.494141 11.4354V10.1931H1.56263V11.4354C1.56263 11.4987 1.589 11.5566 1.64174 11.6092C1.69435 11.662 1.75229 11.6883 1.81558 11.6883H10.1864C10.2497 11.6883 10.3076 11.662 10.3602 11.6092C10.413 11.5566 10.4393 11.4987 10.4393 11.4354V10.1931H11.5078V11.4354C11.5078 11.8054 11.38 12.1181 11.1244 12.3736C10.8688 12.6291 10.5559 12.7568 10.1856 12.7568H1.80983Z" fill="white"/>
</g>
<defs>
<clipPath id="clip0_29117_140873">
<rect width="12" height="12" fill="white" transform="translate(0 0.756836)"/>
</clipPath>
</defs>
</svg>
