<svg width="36" height="36" viewBox="0 0 36 36" fill="none" xmlns="http://www.w3.org/2000/svg">
<circle cx="18" cy="18" r="18" fill="#9F0F0F"/>
<path d="M19.8162 17.9994L25.3384 12.4801C25.5796 12.239 25.7152 11.9119 25.7152 11.5709C25.7152 11.2299 25.5796 10.9029 25.3384 10.6618C25.0971 10.4206 24.7699 10.2852 24.4287 10.2852C24.0875 10.2852 23.7603 10.4206 23.5191 10.6618L17.9969 16.1811L12.4748 10.6682C12.2288 10.4576 11.9125 10.3476 11.5889 10.3601C11.2653 10.3726 10.9583 10.5067 10.7294 10.7356C10.5004 10.9644 10.3662 11.2712 10.3537 11.5946C10.3412 11.9181 10.4513 12.2343 10.6619 12.4801L16.1777 17.9994L10.6619 23.5188C10.4207 23.7599 10.2852 24.0869 10.2852 24.428C10.2852 24.769 10.4207 25.096 10.6619 25.3371C10.9032 25.5783 11.2304 25.7137 11.5716 25.7137C11.9128 25.7137 12.24 25.5783 12.4812 25.3371L17.9969 19.8178L23.5191 25.3371C23.7603 25.5783 24.0875 25.7137 24.4287 25.7137C24.7699 25.7137 25.0971 25.5783 25.3384 25.3371C25.5796 25.096 25.7152 24.769 25.7152 24.428C25.7152 24.0869 25.5796 23.7599 25.3384 23.5188L19.8162 17.9994Z" fill="white"/>
</svg>
