<svg width="65" height="64" viewBox="0 0 65 64" fill="none" xmlns="http://www.w3.org/2000/svg">
<circle cx="32.7422" cy="32" r="32" fill="#F7F7F7"/>
<path fill-rule="evenodd" clip-rule="evenodd" d="M38.1008 16H27.3838C26.1858 16 25.037 16.4759 24.1899 17.3229C23.3429 18.17 22.867 19.3188 22.867 20.5167V32.7656C22.867 33.5689 23.5182 34.2201 24.3216 34.2201C25.1249 34.2201 25.7761 33.5689 25.7761 32.7656V20.5167C25.7761 20.0904 25.9455 19.6814 26.247 19.3799C26.5485 19.0784 26.9574 18.9091 27.3838 18.9091H36.6463V23.5789C36.6463 24.3708 36.9609 25.1302 37.5208 25.6901C38.0807 26.25 38.8401 26.5646 39.632 26.5646H44.3024V41.9522C44.3024 42.3785 44.1331 42.7875 43.8316 43.0889C43.5301 43.3904 43.1212 43.5598 42.6948 43.5598H34.2737C33.4704 43.5598 32.8192 44.211 32.8192 45.0144C32.8192 45.8177 33.4704 46.4689 34.2737 46.4689H42.6948C43.8927 46.4689 45.0415 45.993 45.8886 45.146C46.7356 44.2989 47.2115 43.1501 47.2115 41.9522V25.11C47.2115 24.7243 47.0583 24.3543 46.7855 24.0815L39.13 16.426C39.0266 16.3227 38.9093 16.2365 38.7825 16.1693C38.5991 16.0718 38.3923 16.0124 38.1727 16.0017C38.149 16.0006 38.1253 16 38.1015 16H38.1008ZM42.2454 23.6555H39.632C39.6116 23.6555 39.5922 23.6474 39.5778 23.6331C39.5634 23.6187 39.5554 23.5992 39.5554 23.5789V20.9655L42.2454 23.6555ZM25.3498 47.574C24.7818 48.142 23.8608 48.142 23.2928 47.574L18.6995 42.9807C18.1314 42.4126 18.1314 41.4917 18.6995 40.9236L23.2928 36.3303C23.8608 35.7623 24.7818 35.7623 25.3498 36.3303C25.9178 36.8984 25.9178 37.8193 25.3498 38.3874L23.2395 40.4976H30.4457C31.249 40.4976 31.9002 41.1488 31.9002 41.9522C31.9002 42.7555 31.249 43.4067 30.4457 43.4067H23.2395L25.3498 45.517C25.9178 46.085 25.9178 47.0059 25.3498 47.574Z" fill="#0072B2"/>
</svg>
