<svg width="16" height="16" viewBox="0 0 16 16" fill="none" xmlns="http://www.w3.org/2000/svg">
<path fill-rule="evenodd" clip-rule="evenodd" d="M4.98663 1.68997C5.13737 1.53922 5.34183 1.45454 5.55502 1.45454H10.1865V3.78947C10.1865 4.18539 10.3438 4.5651 10.6237 4.84505C10.9037 5.12501 11.2834 5.28229 11.6793 5.28229H14.0144V12.9761C14.0144 13.1893 13.9297 13.3937 13.7789 13.5445C13.6282 13.6952 13.4237 13.7799 13.2105 13.7799H9C8.59834 13.7799 8.27273 14.1055 8.27273 14.5072C8.27273 14.9088 8.59834 15.2345 9 15.2345H13.2105C13.8095 15.2345 14.3839 14.9965 14.8074 14.573C15.231 14.1495 15.4689 13.575 15.4689 12.9761V4.55502C15.4689 4.51219 15.4651 4.46975 15.4577 4.42814C15.4417 4.33714 15.4088 4.25197 15.3623 4.17599C15.3326 4.12725 15.2969 4.08181 15.2559 4.04077L11.4281 0.213012C11.2947 0.0795672 11.1147 0.00333636 10.9264 0.000106974C10.9222 3.57147e-05 10.918 0 10.9139 0H10.9138H5.55502C4.95606 0 4.38164 0.237934 3.95811 0.661461C3.53459 1.08499 3.29665 1.65941 3.29665 2.25837V8.38278C3.29665 8.78443 3.62226 9.11004 4.02392 9.11004C4.42558 9.11004 4.75119 8.78443 4.75119 8.38278V2.25837C4.75119 2.04518 4.83588 1.84072 4.98663 1.68997ZM11.641 2.48293V3.78947C11.641 3.79962 11.6451 3.80936 11.6522 3.81654C11.6594 3.82372 11.6692 3.82775 11.6793 3.82775H12.9859L11.641 2.48293ZM5.30373 10.1652C5.01971 9.88116 4.55923 9.88116 4.27521 10.1652C3.9912 10.4492 3.9912 10.9097 4.27521 11.1937L5.33034 12.2488H1.72727C1.32561 12.2488 1 12.5744 1 12.9761C1 13.3777 1.32561 13.7033 1.72727 13.7033H5.33034L4.27521 14.7585C3.9912 15.0425 3.9912 15.503 4.27521 15.787C4.55923 16.071 5.01971 16.071 5.30373 15.787L7.60038 13.4903C7.88439 13.2063 7.88439 12.7458 7.60038 12.4618L5.30373 10.1652Z" fill="white"/>
</svg>
