<svg width="16" height="12" viewBox="0 0 16 12" fill="none" xmlns="http://www.w3.org/2000/svg">
<path d="M14.8359 5.31599C14.9626 5.51223 15.0656 5.68288 15.1441 5.81818C15.0656 5.95349 14.9626 6.12414 14.8359 6.32038C14.5011 6.83871 14.0054 7.52795 13.3619 8.21432C12.0613 9.60165 10.2458 10.8864 8 10.8864C5.75418 10.8864 3.93869 9.60165 2.63806 8.21432C1.99459 7.52795 1.49888 6.83871 1.16412 6.32038C1.03738 6.12414 0.934416 5.95349 0.855898 5.81818C0.934416 5.68288 1.03738 5.51223 1.16412 5.31599C1.49888 4.79765 1.99459 4.10842 2.63806 3.42205C3.93869 2.03472 5.75418 0.75 8 0.75C10.2458 0.75 12.0613 2.03472 13.3619 3.42205C14.0054 4.10842 14.5011 4.79765 14.8359 5.31599Z" stroke="white" stroke-width="1.5" stroke-linecap="round" stroke-linejoin="round"/>
<path d="M9.43395 5.81854C9.43395 6.60931 8.7929 7.25036 8.00213 7.25036C7.21136 7.25036 6.57031 6.60931 6.57031 5.81854C6.57031 5.02777 7.21136 4.38672 8.00213 4.38672C8.7929 4.38672 9.43395 5.02777 9.43395 5.81854Z" stroke="white" stroke-width="1.5" stroke-linecap="round" stroke-linejoin="round"/>
</svg>
