<svg width="21" height="21" viewBox="0 0 21 21" fill="none" xmlns="http://www.w3.org/2000/svg">
<path fill-rule="evenodd" clip-rule="evenodd" d="M4.04688 4.15495C3.82586 4.15495 3.6139 4.24275 3.45762 4.39903C3.30134 4.55531 3.21354 4.76727 3.21354 4.98828L3.21354 16.6549C3.21354 16.876 3.30134 17.0879 3.45762 17.2442C3.6139 17.4005 3.82586 17.4883 4.04687 17.4883H17.3802C17.6012 17.4883 17.8132 17.4005 17.9695 17.2442C18.1257 17.0879 18.2135 16.876 18.2135 16.6549L18.2135 7.48828C18.2135 7.26727 18.1257 7.05531 17.9695 6.89902C17.8132 6.74275 17.6012 6.65495 17.3802 6.65495L9.88021 6.65495C9.60158 6.65495 9.34139 6.5157 9.18683 6.28386L7.76756 4.15495L4.04688 4.15495ZM2.27911 3.22051C2.74795 2.75167 3.38383 2.48828 4.04688 2.48828L8.21354 2.48828C8.49217 2.48828 8.75236 2.62753 8.90692 2.85936L10.3262 4.98828L17.3802 4.98828C18.0433 4.98828 18.6791 5.25167 19.148 5.72051C19.6168 6.18935 19.8802 6.82524 19.8802 7.48828L19.8802 16.6549C19.8802 17.318 19.6168 17.9539 19.148 18.4227C18.6791 18.8916 18.0433 19.1549 17.3802 19.1549L4.04687 19.1549C3.38383 19.1549 2.74795 18.8916 2.27911 18.4227C1.81027 17.9539 1.54687 17.318 1.54687 16.6549L1.54687 4.98828C1.54687 4.32524 1.81027 3.68936 2.27911 3.22051ZM10.7135 9.15495C11.1738 9.15495 11.5469 9.52804 11.5469 9.98828V11.6549H13.2135C13.6738 11.6549 14.0469 12.028 14.0469 12.4883C14.0469 12.9485 13.6738 13.3216 13.2135 13.3216H11.5469V14.9883C11.5469 15.4485 11.1738 15.8216 10.7135 15.8216C10.2533 15.8216 9.88021 15.4485 9.88021 14.9883V13.3216H8.21354C7.7533 13.3216 7.38021 12.9485 7.38021 12.4883C7.38021 12.028 7.7533 11.6549 8.21354 11.6549H9.88021V9.98828C9.88021 9.52804 10.2533 9.15495 10.7135 9.15495Z" fill="black"/>
</svg>
