<svg width="25" height="25" viewBox="0 0 25 25" fill="none" xmlns="http://www.w3.org/2000/svg">
<path fill-rule="evenodd" clip-rule="evenodd" d="M4.71094 4.82031C4.44572 4.82031 4.19137 4.92567 4.00383 5.11321C3.81629 5.30074 3.71094 5.5551 3.71094 5.82031L3.71094 19.8203C3.71094 20.0855 3.81629 20.3399 4.00383 20.5274C4.19137 20.715 4.44572 20.8203 4.71094 20.8203L20.7109 20.8203C20.9762 20.8203 21.2305 20.715 21.418 20.5274C21.6056 20.3399 21.7109 20.0855 21.7109 19.8203L21.7109 8.82031C21.7109 8.5551 21.6056 8.30074 21.418 8.11321C21.2305 7.92567 20.9762 7.82031 20.7109 7.82031L11.7109 7.82031C11.3766 7.82031 11.0644 7.65321 10.8789 7.37501L9.17575 4.82031L4.71094 4.82031ZM2.58962 3.69899C3.15223 3.13638 3.91529 2.82031 4.71094 2.82031L9.71094 2.82031C10.0453 2.82031 10.3575 2.98741 10.543 3.26561L12.2461 5.82031L20.7109 5.82031C21.5066 5.82031 22.2696 6.13638 22.8323 6.69899C23.3949 7.2616 23.7109 8.02466 23.7109 8.82031L23.7109 19.8203C23.7109 20.616 23.3949 21.379 22.8323 21.9416C22.2696 22.5042 21.5066 22.8203 20.7109 22.8203L4.71094 22.8203C3.91529 22.8203 3.15223 22.5042 2.58962 21.9416C2.02701 21.379 1.71094 20.616 1.71094 19.8203L1.71094 5.82031C1.71094 5.02466 2.02701 4.2616 2.58962 3.69899Z" fill="white"/>
<path fill-rule="evenodd" clip-rule="evenodd" d="M8.71094 14.8203C8.71094 14.268 9.15865 13.8203 9.71094 13.8203L15.7109 13.8203C16.2632 13.8203 16.7109 14.268 16.7109 14.8203C16.7109 15.3726 16.2632 15.8203 15.7109 15.8203L9.71094 15.8203C9.15865 15.8203 8.71094 15.3726 8.71094 14.8203Z" fill="white"/>
</svg>
