<svg width="17" height="17" viewBox="0 0 17 17" fill="none" xmlns="http://www.w3.org/2000/svg">
<g clip-path="url(#clip0_7226_54589)">
<path fill-rule="evenodd" clip-rule="evenodd" d="M3.26547 2.07407C3.64055 1.69899 4.14925 1.48828 4.67969 1.48828L9.34635 1.48828C9.52317 1.48828 9.69273 1.55852 9.81776 1.68354L14.4844 6.35021C14.6095 6.47523 14.6797 6.6448 14.6797 6.82161L14.6797 14.1549C14.6797 14.6854 14.469 15.1941 14.0939 15.5692C13.7188 15.9442 13.2101 16.1549 12.6797 16.1549H4.67969C4.14925 16.1549 3.64055 15.9442 3.26547 15.5692C2.8904 15.1941 2.67969 14.6854 2.67969 14.1549L2.67969 3.48828C2.67969 2.95785 2.8904 2.44914 3.26547 2.07407ZM4.67969 2.82161C4.50288 2.82161 4.33331 2.89185 4.20828 3.01688C4.08326 3.1419 4.01302 3.31147 4.01302 3.48828L4.01302 14.1549C4.01302 14.3318 4.08326 14.5013 4.20828 14.6264C4.33331 14.7514 4.50288 14.8216 4.67969 14.8216L12.6797 14.8216C12.8565 14.8216 13.0261 14.7514 13.1511 14.6264C13.2761 14.5013 13.3464 14.3318 13.3464 14.1549V7.09776L9.07021 2.82161L4.67969 2.82161Z" fill="black"/>
<path fill-rule="evenodd" clip-rule="evenodd" d="M9.34635 1.48828C9.71454 1.48828 10.013 1.78676 10.013 2.15495V6.15495L14.013 6.15495C14.3812 6.15495 14.6797 6.45342 14.6797 6.82161C14.6797 7.1898 14.3812 7.48828 14.013 7.48828L9.34635 7.48828C8.97816 7.48828 8.67969 7.1898 8.67969 6.82161V2.15495C8.67969 1.78676 8.97816 1.48828 9.34635 1.48828Z" fill="black"/>
</g>
<defs>
<clipPath id="clip0_7226_54589">
<rect width="16" height="16" fill="white" transform="translate(0.679688 0.820312)"/>
</clipPath>
</defs>
</svg>
