<svg width="65" height="65" viewBox="0 0 65 65" fill="none" xmlns="http://www.w3.org/2000/svg">
<circle cx="32.625" cy="32.4492" r="32" fill="#F7F7F7"/>
<g clip-path="url(#clip0_6317_93903)">
<path fill-rule="evenodd" clip-rule="evenodd" d="M26.5983 19.8292C26.8997 19.5277 27.3087 19.3583 27.735 19.3583H36.998V24.0282C36.998 24.82 37.3125 25.5794 37.8725 26.1393C38.4324 26.6992 39.1918 27.0138 39.9836 27.0138H44.6537V42.4014C44.6537 42.8278 44.4844 43.2367 44.1829 43.5382C43.8814 43.8397 43.4724 44.009 43.0461 44.009H34.625C33.8217 44.009 33.1705 44.6603 33.1705 45.4636C33.1705 46.2669 33.8217 46.9181 34.625 46.9181H43.0461C44.244 46.9181 45.3928 46.4422 46.2399 45.5952C47.0869 44.7481 47.5628 43.5993 47.5628 42.4014V25.5593C47.5628 25.4736 47.5552 25.3887 47.5405 25.3055C47.5085 25.1235 47.4426 24.9532 47.3496 24.8012C47.2901 24.7037 47.2189 24.6128 47.1368 24.5308L39.4813 16.8752C39.2144 16.6084 38.8545 16.4559 38.4777 16.4494C38.4694 16.4493 38.4611 16.4492 38.4528 16.4492H38.4525H27.735C26.5371 16.4492 25.3883 16.9251 24.5412 17.7721C23.6942 18.6192 23.2183 19.768 23.2183 20.966V33.2148C23.2183 34.0181 23.8695 34.6693 24.6728 34.6693C25.4762 34.6693 26.1274 34.0181 26.1274 33.2148V20.966C26.1274 20.5396 26.2968 20.1307 26.5983 19.8292ZM39.907 21.4151V24.0282C39.907 24.0485 39.9151 24.0679 39.9295 24.0823C39.9438 24.0967 39.9633 24.1047 39.9836 24.1047H42.5967L39.907 21.4151ZM27.2325 36.7796C26.6644 36.2115 25.7435 36.2115 25.1754 36.7796C24.6074 37.3476 24.6074 38.2686 25.1754 38.8366L27.2857 40.9468H20.0795C19.2762 40.9468 18.625 41.5981 18.625 42.4014C18.625 43.2047 19.2762 43.8559 20.0795 43.8559H27.2857L25.1754 45.9662C24.6074 46.5342 24.6074 47.4552 25.1754 48.0232C25.7435 48.5912 26.6644 48.5912 27.2325 48.0232L31.8258 43.4299C32.3938 42.8619 32.3938 41.9409 31.8258 41.3729L27.2325 36.7796Z" fill="#0072B2"/>
</g>
<defs>
<clipPath id="clip0_6317_93903">
<rect width="32" height="32" fill="white" transform="translate(16.625 16.4492)"/>
</clipPath>
</defs>
</svg>
