<svg width="16" height="16" viewBox="0 0 16 16" fill="none" xmlns="http://www.w3.org/2000/svg">
<path d="M3.2754 10.165C3.55939 9.88118 4.01974 9.88117 4.30372 10.165C4.5877 10.449 4.58762 10.9093 4.30372 11.1934L3.24904 12.249H6.85157C7.25323 12.249 7.57911 12.5749 7.57911 12.9766C7.57885 13.378 7.25307 13.7031 6.85157 13.7031H3.24904L4.30372 14.7588C4.58763 15.0428 4.5877 15.5031 4.30372 15.7871C4.01974 16.071 3.55939 16.071 3.2754 15.7871L0.978528 13.4902C0.694659 13.2062 0.694656 12.7459 0.978528 12.4619L3.2754 10.165ZM10.6797 0C10.7285 3.16624e-06 10.7771 0.00411329 10.8242 0.0136719C10.841 0.0170682 10.8567 0.0247618 10.8731 0.0292969C10.9021 0.0373584 10.9312 0.0450543 10.959 0.0566406C10.9863 0.0680591 11.0116 0.0831132 11.0371 0.0976562C11.0526 0.106427 11.0692 0.113139 11.084 0.123047C11.1235 0.149574 11.1608 0.179328 11.1943 0.212891L15.0215 4.04102C15.1578 4.17732 15.2343 4.36194 15.2344 4.55469V12.9766C15.2343 13.5753 14.9967 14.1498 14.5733 14.5732C14.1498 14.9966 13.5754 15.2343 12.9766 15.2344H8.76564C8.36404 15.2343 8.0381 14.9084 8.0381 14.5068C8.03828 14.1054 8.36416 13.7803 8.76564 13.7803H12.9766C13.1896 13.7802 13.3943 13.6955 13.5449 13.5449C13.6956 13.3943 13.7802 13.1896 13.7803 12.9766V5.28223H11.4453C11.0494 5.28223 10.6696 5.12468 10.3897 4.84473C10.1097 4.56477 9.95216 4.18498 9.95216 3.78906V1.4541H5.32032C5.1073 1.45423 4.9026 1.53979 4.75197 1.69043C4.6015 1.84113 4.51661 2.04581 4.51661 2.25879V8.38281C4.51659 8.78434 4.19153 9.11016 3.79005 9.11035C3.38841 9.11035 3.06253 8.78445 3.06251 8.38281V2.25879C3.06251 1.65983 3.30012 1.08466 3.72365 0.661133C4.14706 0.237744 4.72156 0.00012498 5.32032 0H10.6797ZM11.4063 3.78906C11.4063 3.79922 11.4108 3.80923 11.418 3.81641C11.4252 3.82358 11.4352 3.82812 11.4453 3.82812H12.752L11.4063 2.48242V3.78906Z" fill="white"/>
</svg>
