<svg width="16" height="16" viewBox="0 0 16 16" fill="none" xmlns="http://www.w3.org/2000/svg">
<path d="M7.25 11.9971H8.75V6.99707H7.25V11.9971ZM7.99563 5.49707C8.20688 5.49707 8.38542 5.42561 8.53125 5.2827C8.67708 5.13978 8.75 4.9627 8.75 4.75145C8.75 4.5402 8.67854 4.36165 8.53563 4.21582C8.39271 4.06999 8.21563 3.99707 8.00438 3.99707C7.79313 3.99707 7.61458 4.06853 7.46875 4.21144C7.32292 4.35436 7.25 4.53144 7.25 4.74269C7.25 4.95394 7.32146 5.13249 7.46438 5.27832C7.60729 5.42415 7.78438 5.49707 7.99563 5.49707ZM8.00583 15.9971C6.90472 15.9971 5.86806 15.7887 4.89583 15.3721C3.92361 14.9554 3.07292 14.3825 2.34375 13.6533C1.61458 12.9242 1.04167 12.0737 0.625 11.1021C0.208333 10.1304 0 9.09221 0 7.98749C0 6.88277 0.208333 5.84777 0.625 4.88249C1.04167 3.91721 1.61458 3.06999 2.34375 2.34082C3.07292 1.61165 3.92333 1.03874 4.895 0.62207C5.86667 0.205404 6.90486 -0.00292969 8.00958 -0.00292969C9.11431 -0.00292969 10.1493 0.205404 11.1146 0.62207C12.0799 1.03874 12.9271 1.61165 13.6562 2.34082C14.3854 3.06999 14.9583 3.91874 15.375 4.88707C15.7917 5.85554 16 6.89026 16 7.99124C16 9.09235 15.7917 10.129 15.375 11.1012C14.9583 12.0735 14.3854 12.9242 13.6562 13.6533C12.9271 14.3825 12.0783 14.9554 11.11 15.3721C10.1415 15.7887 9.10681 15.9971 8.00583 15.9971Z" fill="black"/>
</svg>
