<svg width="17" height="17" viewBox="0 0 17 17" fill="none" xmlns="http://www.w3.org/2000/svg">
<g clip-path="url(#clip0_13192_299773)">
<g clip-path="url(#clip1_13192_299773)">
<path fill-rule="evenodd" clip-rule="evenodd" d="M3.56641 2.07682C3.56641 1.70863 3.86488 1.41016 4.23307 1.41016H12.2331C12.6013 1.41016 12.8997 1.70863 12.8997 2.07682V6.74349C12.8997 7.11168 12.6013 7.41016 12.2331 7.41016C11.8649 7.41016 11.5664 7.11168 11.5664 6.74349V2.74349H4.89974V6.74349C4.89974 7.11168 4.60126 7.41016 4.23307 7.41016C3.86488 7.41016 3.56641 7.11168 3.56641 6.74349V2.07682Z" fill="black"/>
<path fill-rule="evenodd" clip-rule="evenodd" d="M2.90234 7.40755C2.72553 7.40755 2.55596 7.47779 2.43094 7.60281C2.30591 7.72784 2.23568 7.89741 2.23568 8.07422V11.4076C2.23568 11.5844 2.30591 11.7539 2.43094 11.879C2.55596 12.004 2.72553 12.0742 2.90234 12.0742H4.23568C4.60387 12.0742 4.90234 12.3727 4.90234 12.7409C4.90234 13.1091 4.60387 13.4076 4.23568 13.4076H2.90234C2.37191 13.4076 1.8632 13.1968 1.48813 12.8218C1.11306 12.4467 0.902344 11.938 0.902344 11.4076V8.07422C0.902344 7.54379 1.11306 7.03508 1.48813 6.66001C1.8632 6.28493 2.37191 6.07422 2.90234 6.07422H13.569C14.0994 6.07422 14.6082 6.28493 14.9832 6.66001C15.3583 7.03508 15.569 7.54379 15.569 8.07422V11.4076C15.569 11.938 15.3583 12.4467 14.9832 12.8218C14.6082 13.1968 14.0994 13.4076 13.569 13.4076H12.2357C11.8675 13.4076 11.569 13.1091 11.569 12.7409C11.569 12.3727 11.8675 12.0742 12.2357 12.0742H13.569C13.7458 12.0742 13.9154 12.004 14.0404 11.879C14.1654 11.7539 14.2357 11.5844 14.2357 11.4076V8.07422C14.2357 7.89741 14.1654 7.72784 14.0404 7.60281C13.9154 7.47779 13.7458 7.40755 13.569 7.40755H2.90234Z" fill="black"/>
<path fill-rule="evenodd" clip-rule="evenodd" d="M3.56641 10.0768C3.56641 9.70863 3.86488 9.41016 4.23307 9.41016H12.2331C12.6013 9.41016 12.8997 9.70863 12.8997 10.0768V15.4102C12.8997 15.7783 12.6013 16.0768 12.2331 16.0768H4.23307C3.86488 16.0768 3.56641 15.7783 3.56641 15.4102V10.0768ZM4.89974 10.7435V14.7435H11.5664V10.7435H4.89974Z" fill="black"/>
</g>
</g>
<defs>
<clipPath id="clip0_13192_299773">
<rect width="16" height="16" fill="white" transform="translate(0.234375 0.742188)"/>
</clipPath>
<clipPath id="clip1_13192_299773">
<rect width="16" height="16" fill="white" transform="translate(0.234375 0.742188)"/>
</clipPath>
</defs>
</svg>
