<svg width="17" height="17" viewBox="0 0 17 17" fill="none" xmlns="http://www.w3.org/2000/svg">
<g clip-path="url(#clip0_13192_299769)">
<path d="M9.93438 5.15469C9.93438 5.15469 10.7718 4.74219 7.73438 4.74219C6.64658 4.74219 5.58321 5.06476 4.67874 5.6691C3.77427 6.27345 3.06932 7.13243 2.65304 8.13743C2.23676 9.14242 2.12784 10.2483 2.34006 11.3152C2.55228 12.3821 3.0761 13.3621 3.84529 14.1313C4.61448 14.9005 5.59448 15.4243 6.66138 15.6365C7.72828 15.8487 8.83414 15.7398 9.83913 15.3235C10.8441 14.9072 11.7031 14.2023 12.3075 13.2978C12.9118 12.3934 13.2344 11.33 13.2344 10.2422" stroke="black" stroke-width="1.5" stroke-miterlimit="10" stroke-linecap="round"/>
<path d="M8.23438 1.74219L10.2344 4.74219L8.23438 7.74219" stroke="black" stroke-width="1.5" stroke-linecap="round" stroke-linejoin="round"/>
</g>
<defs>
<clipPath id="clip0_13192_299769">
<rect width="16" height="16" fill="white" transform="translate(0.234375 0.742188)"/>
</clipPath>
</defs>
</svg>
