<svg width="16" height="16" viewBox="0 0 16 16" fill="none" xmlns="http://www.w3.org/2000/svg">
<path fill-rule="evenodd" clip-rule="evenodd" d="M10.0003 12.667C10.0003 13.0352 10.2988 13.3337 10.667 13.3337C11.0352 13.3337 11.3337 13.0352 11.3337 12.667L11.3337 4.94297L12.8626 6.47189C13.1229 6.73224 13.545 6.73224 13.8054 6.47189C14.0657 6.21154 14.0657 5.78943 13.8054 5.52908L11.1387 2.86242C11.0796 2.80331 11.0122 2.75763 10.9402 2.72536C10.8568 2.68786 10.7643 2.66699 10.667 2.66699C10.4752 2.66699 10.3023 2.74801 10.1806 2.8777L7.52925 5.52908C7.2689 5.78943 7.2689 6.21154 7.52925 6.47189C7.7896 6.73224 8.21171 6.73224 8.47206 6.47189L10.0003 4.94362L10.0003 12.667Z" fill="#FFB000"/>
<path fill-rule="evenodd" clip-rule="evenodd" d="M5.99967 3.33398C5.99967 2.96579 5.7012 2.66732 5.33301 2.66732C4.96482 2.66732 4.66634 2.96579 4.66634 3.33398L4.66634 11.058L3.13742 9.52908C2.87707 9.26873 2.45496 9.26873 2.19461 9.52908C1.93426 9.78943 1.93426 10.2115 2.19461 10.4719L4.86128 13.1386C4.92043 13.1977 4.98792 13.2434 5.05998 13.2757C5.14331 13.3131 5.23572 13.334 5.33301 13.334C5.52483 13.334 5.69773 13.253 5.81936 13.1233L8.47075 10.4719C8.7311 10.2115 8.7311 9.78943 8.47075 9.52908C8.2104 9.26873 7.78829 9.26873 7.52794 9.52908L5.99967 11.0574L5.99967 3.33398Z" fill="#FFB000"/>
</svg>
