<svg width="16" height="16" viewBox="0 0 16 16" fill="none" xmlns="http://www.w3.org/2000/svg">
<g clip-path="url(#clip0_30361_18038)">
<path d="M16 8C16 3.58172 12.4183 0 8 0C3.58172 0 0 3.58172 0 8C0 12.4183 3.58172 16 8 16C12.4183 16 16 12.4183 16 8Z" fill="#009E73"/>
<path fill-rule="evenodd" clip-rule="evenodd" d="M11.8698 5.01689C12.0434 5.19046 12.0434 5.47187 11.8698 5.64543L6.98094 10.5343C6.8074 10.7079 6.52596 10.7079 6.3524 10.5343L4.13017 8.31211C3.95661 8.13851 3.95661 7.85711 4.13017 7.68358C4.30374 7.50998 4.58515 7.50998 4.75872 7.68358L6.66667 9.59151L11.2413 5.01689C11.4149 4.84333 11.6963 4.84333 11.8698 5.01689Z" fill="white"/>
</g>
<defs>
<clipPath id="clip0_30361_18038">
<rect width="16" height="16" fill="white"/>
</clipPath>
</defs>
</svg>
