<svg width="16" height="16" viewBox="0 0 16 16" fill="none" xmlns="http://www.w3.org/2000/svg">
<g clip-path="url(#clip0_30361_18043)">
<path d="M16 8C16 3.58172 12.4183 0 8 0C3.58172 0 0 3.58172 0 8C0 12.4183 3.58172 16 8 16C12.4183 16 16 12.4183 16 8Z" fill="#9F0F0F"/>
<path fill-rule="evenodd" clip-rule="evenodd" d="M11.4766 4.52296C11.679 4.72545 11.679 5.05376 11.4766 5.25625L5.25433 11.4785C5.0518 11.681 4.72353 11.681 4.521 11.4785C4.31852 11.276 4.31852 10.9477 4.521 10.7452L10.7432 4.52296C10.9458 4.32047 11.274 4.32047 11.4766 4.52296Z" fill="white"/>
<path fill-rule="evenodd" clip-rule="evenodd" d="M4.521 4.52296C4.72353 4.32047 5.0518 4.32047 5.25433 4.52296L11.4766 10.7452C11.679 10.9477 11.679 11.276 11.4766 11.4785C11.274 11.681 10.9458 11.681 10.7432 11.4785L4.521 5.25625C4.31852 5.05376 4.31852 4.72545 4.521 4.52296Z" fill="white"/>
</g>
<defs>
<clipPath id="clip0_30361_18043">
<rect width="16" height="16" fill="white"/>
</clipPath>
</defs>
</svg>
