<svg width="17" height="16" viewBox="0 0 17 16" fill="none" xmlns="http://www.w3.org/2000/svg">
<g clip-path="url(#clip0_6126_31363)">
<path fill-rule="evenodd" clip-rule="evenodd" d="M11.039 0.195262C11.2994 -0.0650874 11.7215 -0.0650874 11.9818 0.195262L14.6485 2.86193C14.9088 3.12228 14.9088 3.54439 14.6485 3.80474L11.9818 6.4714C11.7215 6.73175 11.2994 6.73175 11.039 6.4714C10.7787 6.21105 10.7787 5.78894 11.039 5.5286L13.2343 3.33333L11.039 1.13807C10.7787 0.877722 10.7787 0.455612 11.039 0.195262Z" fill="white"/>
<path fill-rule="evenodd" clip-rule="evenodd" d="M4.84896 3.99935C4.31853 3.99935 3.80982 4.21006 3.43474 4.58514C3.05967 4.96021 2.84896 5.46892 2.84896 5.99935V7.33268C2.84896 7.70087 2.55048 7.99935 2.18229 7.99935C1.8141 7.99935 1.51562 7.70087 1.51562 7.33268V5.99935C1.51562 5.11529 1.86681 4.26745 2.49194 3.64233C3.11706 3.0172 3.9649 2.66602 4.84896 2.66602H14.1823C14.5505 2.66602 14.849 2.96449 14.849 3.33268C14.849 3.70087 14.5505 3.99935 14.1823 3.99935H4.84896Z" fill="white"/>
<path fill-rule="evenodd" clip-rule="evenodd" d="M5.32036 9.52925C5.58071 9.7896 5.58071 10.2117 5.32036 10.4721L3.1251 12.6673L5.32036 14.8626C5.58071 15.1229 5.58071 15.545 5.32036 15.8054C5.06001 16.0657 4.6379 16.0657 4.37755 15.8054L1.71089 13.1387C1.45054 12.8784 1.45054 12.4563 1.71089 12.1959L4.37755 9.52925C4.6379 9.2689 5.06001 9.2689 5.32036 9.52925Z" fill="white"/>
<path fill-rule="evenodd" clip-rule="evenodd" d="M14.1823 8C14.5505 8 14.849 8.29848 14.849 8.66667V10C14.849 10.8841 14.4978 11.7319 13.8726 12.357C13.2475 12.9821 12.3997 13.3333 11.5156 13.3333H2.18229C1.8141 13.3333 1.51562 13.0349 1.51562 12.6667C1.51562 12.2985 1.8141 12 2.18229 12H11.5156C12.0461 12 12.5548 11.7893 12.9298 11.4142C13.3049 11.0391 13.5156 10.5304 13.5156 10V8.66667C13.5156 8.29848 13.8141 8 14.1823 8Z" fill="white"/>
</g>
<defs>
<clipPath id="clip0_6126_31363">
<rect width="16" height="16" fill="white" transform="translate(0.179688)"/>
</clipPath>
</defs>
</svg>
