<svg width="11" height="14" viewBox="0 0 11 14" fill="none" xmlns="http://www.w3.org/2000/svg">
<path fill-rule="evenodd" clip-rule="evenodd" d="M0.90625 1.47068C0.90625 1.21628 1.10808 1.00902 1.36035 1.00029V1H1.37693H10.4356H10.4513V1.00026C10.7039 1.00853 10.9062 1.21598 10.9062 1.47068C10.9062 1.72538 10.7039 1.93282 10.4513 1.9411V1.94737H9.29732V3.84211C9.29732 4.55305 9.11065 5.19921 8.73732 5.78058C8.36399 6.36195 7.86924 6.76842 7.25308 7C7.86924 7.22747 8.36399 7.63295 8.73732 8.21642C9.11065 8.79979 9.29732 9.44695 9.29732 10.1579V12.0526H10.4513V12.059C10.7039 12.0673 10.9062 12.2748 10.9062 12.5294C10.9062 12.7841 10.7039 12.9916 10.4513 12.9999V13H10.4466C10.4429 13.0001 10.4392 13.0001 10.4356 13.0001H1.37693C1.37325 13.0001 1.36959 13.0001 1.36593 13H1.36035V12.9998C1.10808 12.9911 0.90625 12.7838 0.90625 12.5294C0.90625 12.275 1.10808 12.0678 1.36035 12.0591V12.0526H2.51429V10.1579C2.51429 9.44695 2.70096 8.79979 3.07429 8.21642C3.44762 7.63295 3.94237 7.22747 4.55853 7C3.94237 6.76842 3.44762 6.36195 3.07429 5.78058C2.70096 5.19921 2.51429 4.55305 2.51429 3.84211V1.94737H1.36035V1.94107C1.10808 1.93234 0.90625 1.72508 0.90625 1.47068ZM3.42323 12.0526H8.38838V10.1579C8.38838 9.43884 8.14712 8.82384 7.66459 8.31289C7.18207 7.80195 6.59581 7.54647 5.90581 7.54647C5.21581 7.54647 4.62954 7.80195 4.14702 8.31289C3.66449 8.82384 3.42323 9.43884 3.42323 10.1579V12.0526ZM5.90581 6.45353C6.59581 6.45353 7.18207 6.19805 7.66459 5.6871C8.14712 5.17616 8.38838 4.56116 8.38838 3.84211V1.94737H3.42323V3.84211C3.42323 4.56116 3.66449 5.17616 4.14702 5.6871C4.62954 6.19805 5.21581 6.45353 5.90581 6.45353Z" fill="white"/>
<path d="M1.36035 1.00029L1.36381 1.10023L1.46035 1.09689V1.00029H1.36035ZM1.36035 1V0.9H1.26035V1H1.36035ZM10.4513 1H10.5513V0.9H10.4513V1ZM10.4513 1.00026H10.3513V1.09704L10.448 1.1002L10.4513 1.00026ZM10.4513 1.9411L10.448 1.84115L10.3513 1.84432V1.9411H10.4513ZM10.4513 1.94737V2.04737H10.5513V1.94737H10.4513ZM9.29732 1.94737V1.84737H9.19732V1.94737H9.29732ZM8.73732 5.78058L8.82147 5.83461L8.73732 5.78058ZM7.25308 7L7.2179 6.90639L6.96661 7.00084L7.21844 7.09381L7.25308 7ZM8.73732 8.21642L8.65309 8.27032L8.65309 8.27032L8.73732 8.21642ZM9.29732 12.0526H9.19732V12.1526H9.29732V12.0526ZM10.4513 12.0526H10.5513V11.9526H10.4513V12.0526ZM10.4513 12.059H10.3513V12.1558L10.448 12.159L10.4513 12.059ZM10.4513 12.9999L10.448 12.8999L10.3513 12.9031V12.9999H10.4513ZM10.4513 13V13.1H10.5513V13H10.4513ZM10.4466 13V12.9L10.4443 12.9L10.4466 13ZM1.36593 13L1.36823 12.9H1.36593V13ZM1.36035 13H1.26035V13.1H1.36035V13ZM1.36035 12.9998H1.46035V12.9032L1.36381 12.8999L1.36035 12.9998ZM1.36035 12.0591L1.36381 12.159L1.46035 12.1557V12.0591H1.36035ZM1.36035 12.0526V11.9526H1.26035V12.0526H1.36035ZM2.51429 12.0526V12.1526H2.61429V12.0526H2.51429ZM3.07429 8.21642L3.15852 8.27032L3.15852 8.27032L3.07429 8.21642ZM4.55853 7L4.59317 7.09381L4.845 7.00084L4.59371 6.90639L4.55853 7ZM3.07429 5.78058L3.15844 5.72655L3.07429 5.78058ZM2.51429 1.94737H2.61429V1.84737H2.51429V1.94737ZM1.36035 1.94737H1.26035V2.04737H1.36035V1.94737ZM1.36035 1.94107H1.46035V1.84447L1.36381 1.84113L1.36035 1.94107ZM8.38838 12.0526V12.1526H8.48838V12.0526H8.38838ZM3.42323 12.0526H3.32323V12.1526H3.42323V12.0526ZM7.66459 8.31289L7.7373 8.24423L7.66459 8.31289ZM4.14702 8.31289L4.07431 8.24423L4.14702 8.31289ZM7.66459 5.6871L7.59189 5.61844L7.66459 5.6871ZM8.38838 1.94737H8.48838V1.84737H8.38838V1.94737ZM3.42323 1.94737V1.84737H3.32323V1.94737H3.42323ZM4.14702 5.6871L4.21972 5.61844L4.14702 5.6871ZM1.35689 0.900346C1.05096 0.910935 0.80625 1.16221 0.80625 1.47068H1.00625C1.00625 1.27035 1.1652 1.1071 1.36381 1.10023L1.35689 0.900346ZM1.26035 1V1.00029H1.46035V1H1.26035ZM1.37693 0.9H1.36035V1.1H1.37693V0.9ZM10.4356 0.9H1.37693V1.1H10.4356V0.9ZM10.4513 0.9H10.4356V1.1H10.4513V0.9ZM10.5513 1.00026V1H10.3513V1.00026H10.5513ZM11.0063 1.47068C11.0063 1.16185 10.761 0.910345 10.4545 0.90031L10.448 1.1002C10.6469 1.10672 10.8062 1.27011 10.8062 1.47068H11.0063ZM10.4545 2.04104C10.761 2.03101 11.0063 1.77951 11.0063 1.47068H10.8062C10.8062 1.67124 10.6469 1.83464 10.448 1.84115L10.4545 2.04104ZM10.5513 1.94737V1.9411H10.3513V1.94737H10.5513ZM9.29732 2.04737H10.4513V1.84737H9.29732V2.04737ZM9.39732 3.84211V1.94737H9.19732V3.84211H9.39732ZM8.82147 5.83461C9.20546 5.23664 9.39732 4.57162 9.39732 3.84211H9.19732C9.19732 4.53448 9.01584 5.16178 8.65318 5.72655L8.82147 5.83461ZM7.28826 7.09361C7.92562 6.85406 8.43711 6.43314 8.82147 5.83461L8.65318 5.72655C8.29086 6.29076 7.81286 6.68278 7.2179 6.90639L7.28826 7.09361ZM8.82155 8.16253C8.43716 7.56177 7.92548 7.14164 7.28771 6.90619L7.21844 7.09381C7.813 7.31331 8.29081 7.70413 8.65309 8.27032L8.82155 8.16253ZM9.39732 10.1579C9.39732 9.42838 9.20547 8.76242 8.82155 8.16252L8.65309 8.27032C9.01584 8.83716 9.19732 9.46552 9.19732 10.1579H9.39732ZM9.39732 12.0526V10.1579H9.19732V12.0526H9.39732ZM10.4513 11.9526H9.29732V12.1526H10.4513V11.9526ZM10.5513 12.059V12.0526H10.3513V12.059H10.5513ZM10.448 12.159C10.6469 12.1655 10.8062 12.3289 10.8062 12.5294H11.0063C11.0063 12.2206 10.761 11.9691 10.4545 11.9591L10.448 12.159ZM10.8062 12.5294C10.8062 12.73 10.6469 12.8934 10.448 12.8999L10.4545 13.0998C10.761 13.0898 11.0063 12.8383 11.0063 12.5294H10.8062ZM10.5513 13V12.9999H10.3513V13H10.5513ZM10.4466 13.1H10.4513V12.9H10.4466V13.1ZM10.4443 12.9C10.4414 12.9001 10.4385 12.9001 10.4356 12.9001V13.1001C10.44 13.1001 10.4444 13.1001 10.4489 13.1L10.4443 12.9ZM10.4356 12.9001H1.37693V13.1001H10.4356V12.9001ZM1.37693 12.9001C1.37401 12.9001 1.37111 12.9001 1.36823 12.9L1.36364 13.1C1.36806 13.1001 1.37249 13.1001 1.37693 13.1001V12.9001ZM1.36035 13.1H1.36593V12.9H1.36035V13.1ZM1.26035 12.9998V13H1.46035V12.9998H1.26035ZM1.36381 12.8999C1.1652 12.893 1.00625 12.7298 1.00625 12.5294H0.80625C0.80625 12.8379 1.05096 13.0892 1.35689 13.0998L1.36381 12.8999ZM1.00625 12.5294C1.00625 12.3291 1.1652 12.1659 1.36381 12.159L1.35689 11.9591C1.05096 11.9697 0.80625 12.221 0.80625 12.5294H1.00625ZM1.26035 12.0526V12.0591H1.46035V12.0526H1.26035ZM2.51429 11.9526H1.36035V12.1526H2.51429V11.9526ZM2.41429 10.1579V12.0526H2.61429V10.1579H2.41429ZM2.99006 8.16252C2.60615 8.76242 2.41429 9.42838 2.41429 10.1579H2.61429C2.61429 9.46552 2.79577 8.83716 3.15852 8.27032L2.99006 8.16252ZM4.5239 6.90619C3.88614 7.14164 3.37445 7.56177 2.99006 8.16253L3.15852 8.27032C3.5208 7.70413 3.99861 7.31331 4.59317 7.09381L4.5239 6.90619ZM2.99015 5.83461C3.3745 6.43314 3.88599 6.85406 4.52335 7.09361L4.59371 6.90639C3.99875 6.68278 3.52075 6.29076 3.15844 5.72655L2.99015 5.83461ZM2.41429 3.84211C2.41429 4.57162 2.60615 5.23664 2.99015 5.83461L3.15844 5.72655C2.79577 5.16178 2.61429 4.53448 2.61429 3.84211H2.41429ZM2.41429 1.94737V3.84211H2.61429V1.94737H2.41429ZM1.36035 2.04737H2.51429V1.84737H1.36035V2.04737ZM1.26035 1.94107V1.94737H1.46035V1.94107H1.26035ZM0.80625 1.47068C0.80625 1.77915 1.05096 2.03042 1.35689 2.04101L1.36381 1.84113C1.1652 1.83425 1.00625 1.67101 1.00625 1.47068H0.80625ZM8.38838 11.9526H3.42323V12.1526H8.38838V11.9526ZM8.28838 10.1579V12.0526H8.48838V10.1579H8.28838ZM7.59189 8.38155C8.05644 8.87347 8.28838 9.46372 8.28838 10.1579H8.48838C8.48838 9.41397 8.2378 8.77422 7.7373 8.24423L7.59189 8.38155ZM5.90581 7.64647C6.56772 7.64647 7.12786 7.89019 7.59189 8.38155L7.7373 8.24423C7.23628 7.7137 6.62389 7.44647 5.90581 7.44647V7.64647ZM4.21972 8.38155C4.68375 7.89019 5.24389 7.64647 5.90581 7.64647V7.44647C5.18772 7.44647 4.57533 7.7137 4.07431 8.24423L4.21972 8.38155ZM3.52323 10.1579C3.52323 9.46372 3.75517 8.87347 4.21972 8.38155L4.07431 8.24423C3.57381 8.77422 3.32323 9.41397 3.32323 10.1579H3.52323ZM3.52323 12.0526V10.1579H3.32323V12.0526H3.52323ZM7.59189 5.61844C7.12786 6.10981 6.56772 6.35353 5.90581 6.35353V6.55353C6.62389 6.55353 7.23628 6.2863 7.7373 5.75576L7.59189 5.61844ZM8.28838 3.84211C8.28838 4.53628 8.05644 5.12653 7.59189 5.61844L7.7373 5.75576C8.2378 5.22578 8.48838 4.58603 8.48838 3.84211H8.28838ZM8.28838 1.94737V3.84211H8.48838V1.94737H8.28838ZM3.42323 2.04737H8.38838V1.84737H3.42323V2.04737ZM3.52323 3.84211V1.94737H3.32323V3.84211H3.52323ZM4.21972 5.61844C3.75517 5.12653 3.52323 4.53628 3.52323 3.84211H3.32323C3.32323 4.58603 3.57381 5.22578 4.07431 5.75576L4.21972 5.61844ZM5.90581 6.35353C5.24389 6.35353 4.68375 6.10981 4.21972 5.61844L4.07431 5.75576C4.57533 6.2863 5.18772 6.55353 5.90581 6.55353V6.35353Z" fill="white"/>
</svg>
