<svg width="25" height="25" viewBox="0 0 25 25" fill="none" xmlns="http://www.w3.org/2000/svg">
<circle cx="12.5" cy="12.1387" r="12" fill="black"/>
<path d="M12.5 18.1387C12.84 18.1387 13.125 18.0237 13.355 17.7937C13.585 17.5637 13.7 17.2787 13.7 16.9387C13.7 16.5987 13.585 16.3137 13.355 16.0837C13.125 15.8537 12.84 15.7387 12.5 15.7387C12.16 15.7387 11.875 15.8537 11.645 16.0837C11.415 16.3137 11.3 16.5987 11.3 16.9387C11.3 17.2787 11.415 17.5637 11.645 17.7937C11.875 18.0237 12.16 18.1387 12.5 18.1387ZM11.3 13.3387H13.7V6.13867H11.3V13.3387ZM12.5 24.1387C10.84 24.1387 9.28 23.8237 7.82 23.1937C6.36 22.5637 5.09 21.7087 4.01 20.6287C2.93 19.5487 2.075 18.2787 1.445 16.8187C0.815 15.3587 0.5 13.7987 0.5 12.1387C0.5 10.4787 0.815 8.91867 1.445 7.45867C2.075 5.99867 2.93 4.72867 4.01 3.64867C5.09 2.56867 6.36 1.71367 7.82 1.08367C9.28 0.453672 10.84 0.138672 12.5 0.138672C14.16 0.138672 15.72 0.453672 17.18 1.08367C18.64 1.71367 19.91 2.56867 20.99 3.64867C22.07 4.72867 22.925 5.99867 23.555 7.45867C24.185 8.91867 24.5 10.4787 24.5 12.1387C24.5 13.7987 24.185 15.3587 23.555 16.8187C22.925 18.2787 22.07 19.5487 20.99 20.6287C19.91 21.7087 18.64 22.5637 17.18 23.1937C15.72 23.8237 14.16 24.1387 12.5 24.1387Z" fill="#FFB000"/>
</svg>
